<svg height="512pt" viewBox="0 -61 512.001 512" width="512pt" xmlns="http://www.w3.org/2000/svg"><path d="m501.378906 160.929688h-42.492187c-4.398438 0-7.964844 3.566406-7.964844 7.96875 0 4.398437 3.566406 7.964843 7.964844 7.964843h13.277343v22.839844c0 4.398437 3.570313 7.964844 7.96875 7.964844 4.398438 0 7.96875-3.566407 7.96875-7.964844v-22.839844h13.277344c4.398438 0 7.964844-3.566406 7.964844-7.964843 0-4.402344-3.566406-7.96875-7.964844-7.96875zm0 0" fill="#c8d2dc"/><path d="m220.414062 303.800781h157.214844l9.167969 75.195313c.773437 6.332031-4.167969 11.910156-10.542969 11.910156h-23.671875c-2.992187 0-5.847656-1.265625-7.859375-3.480469l-14.921875-16.414062c-2.015625-2.214844-4.867187-3.476563-7.859375-3.476563h-203.050781c-2.992187 0-5.847656 1.261719-7.859375 3.476563l-14.925781 16.414062c-2.011719 2.214844-4.867188 3.480469-7.859375 3.480469h-23.667969c-6.378906 0-11.316406-5.582031-10.546875-11.910156l9.171875-75.195313zm0 0" fill="#495959"/><path d="m436.582031 199.703125v33.992187h33.992188c4.691406 0 8.496093 3.804688 8.496093 8.496094v6.375c0 4.691406 3.804688 8.496094 8.5 8.496094h15.933594c4.691406 0 8.496094-3.804688 8.496094-8.496094v-27.621094c0-11.730468-9.511719-21.242187-21.242188-21.242187zm0 0" fill="#ffe046"/><path d="m490.753906 199.703125h-11.75c11.734375 0 21.246094 9.507813 21.246094 21.242187v27.621094c0 4.691406-3.804688 8.496094-8.496094 8.496094h11.75c4.691406 0 8.496094-3.804688 8.496094-8.496094v-27.621094c0-11.734374-9.511719-21.242187-21.246094-21.242187zm0 0" fill="#eec707"/><path d="m386.796875 378.996094-9.167969-75.195313h-314.425781l-2.296875 18.824219c64.691406 22.320312 143.3125 23.664062 161.101562 23.664062 15.113282 0 75.070313-1.015624 132.410157-15.855468 6.21875-1.609375 12.433593 2.609375 13.210937 8.988281l6.277344 51.484375h2.347656c6.375 0 11.316406-5.578125 10.542969-11.910156zm0 0" fill="#3f4a4a"/><path d="m0 164.648438c0 51.910156 6.34375 84.003906 11.277344 101.117187 3.035156 10.519531 10.066406 19.417969 19.535156 24.910156 60.34375 34.984375 163.691406 38.617188 191.195312 38.617188 27.511719 0 128.183594-3.632813 188.109376-38.644531 9.414062-5.5 16.402343-14.367188 19.425781-24.847657 4.9375-17.105469 11.289062-49.207031 11.289062-101.152343 0-51.949219-6.351562-84.050782-11.289062-101.15625-3.023438-10.476563-10.011719-19.34375-19.425781-24.84375-59.925782-35.011719-160.597657-38.648438-188.109376-38.648438-27.503906 0-130.851562 3.632812-191.195312 38.617188-9.46875 5.492187-16.5 14.390624-19.535156 24.914062-4.933594 17.113281-11.277344 49.207031-11.277344 101.117188zm0 0" fill="#a77554"/><g fill="#915431"><path d="m410.007812 38.59375c-.566406-.328125-1.136718-.65625-1.707031-.980469 4.738281 17.890625 10.222657 49.019531 10.222657 97.292969 0 50.15625-5.921876 81.8125-10.777344 99.332031-3.199219 11.5625-10.816406 21.464844-21.234375 27.417969-60.070313 34.3125-159.496094 37.894531-186.8125 37.894531-27.246094 0-128.925781-3.570312-189.488281-37.65625.355468 1.34375.703124 2.613281 1.050781 3.8125 3.035156 10.539063 10.054687 19.464844 19.546875 24.964844 60.339844 34.988281 163.695312 38.621094 191.199218 38.621094 27.511719 0 128.1875-3.632813 188.113282-38.648438 9.410156-5.496093 16.394531-14.363281 19.417968-24.835937 4.9375-17.101563 11.289063-49.207032 11.289063-101.160156 0-51.558594-6.253906-83.566407-11.175781-100.765626-3.046875-10.65625-10.066406-19.707031-19.644532-25.289062zm0 0"/><path d="m354.636719 202.605469c-88.679688 14.902343-178.644531 14.964843-267.394531.175781-4.332032-.714844-8.441407 2.210938-9.167969 6.550781-.722657 4.339844 2.210937 8.445313 6.550781 9.167969 45.070312 7.507812 90.433594 11.261719 135.804688 11.261719 45.722656 0 91.460937-3.816407 136.847656-11.445313 4.339844-.726562 7.265625-4.835937 6.535156-9.175781-.726562-4.339844-4.839844-7.261719-9.175781-6.535156zm0 0"/><path d="m89.199219 47.199219c-4.324219.820312-7.164063 4.988281-6.34375 9.308593.820312 4.324219 4.992187 7.164063 9.3125 6.34375 85.453125-16.21875 172.109375-16.148437 257.5625.210938.507812.09375 1.011719.140625 1.507812.140625 3.746094 0 7.085938-2.652344 7.816407-6.46875.828124-4.320313-2.003907-8.496094-6.328126-9.324219-87.433593-16.734375-176.097656-16.808594-263.527343-.210937zm0 0"/><path d="m6.539062 83.769531c.523438.109375 1.054688.183594 1.597657.183594.804687 0 1.625-.125 2.429687-.382813 12.101563-3.878906 24.453125-7.453124 36.71875-10.636718 4.257813-1.105469 6.816406-5.453125 5.710938-9.710938-1.105469-4.261718-5.457032-6.820312-9.714844-5.714844-10.996094 2.855469-22.050781 6.035157-32.953125 9.441407-1.246094 4.664062-2.546875 10.25-3.789063 16.820312zm0 0"/><path d="m357.148438 108.832031c-90.382813-15.175781-182.074219-15.230469-272.523438-.164062-4.339844.722656-7.269531 4.828125-6.546875 9.167969.722656 4.339843 4.828125 7.277343 9.167969 6.550781 88.75-14.785157 178.714844-14.726563 267.390625.179687.4375.070313.886719.109375 1.332031.109375 4.398438 0 7.960938-3.566406 7.960938-7.96875 0-3.992187-2.945313-7.300781-6.78125-7.875zm0 0"/><path d="m398.675781 57.808594c-4.261719-1.113282-8.613281 1.441406-9.722656 5.699218-1.113281 4.253907 1.4375 8.609376 5.695313 9.71875 11.835937 3.089844 23.820312 6.574219 35.625 10.355469.808593.257813 1.625.378907 2.429687.378907.539063 0 1.066406-.074219 1.585937-.179688-1.238281-6.570312-2.542968-12.15625-3.785156-16.824219-10.578125-3.304687-21.261718-6.386719-31.828125-9.148437zm0 0"/><path d="m395.941406 124.414062c-.988281 4.289063 1.6875 8.566407 5.972656 9.554688 11.929688 2.75 24.054688 5.851562 36.046876 9.222656.722656.203125 1.449218.300782 2.160156.300782.113281 0 .222656-.023438.332031-.027344-.203125-5.738282-.488281-11.183594-.84375-16.34375-11.363281-3.152344-22.824219-6.078125-34.117187-8.679688-4.285157-.992187-8.5625 1.683594-9.550782 5.972656zm0 0"/><path d="m438.066406 183.949219c-12.105468 3.402343-24.265625 6.515625-36.136718 9.242187-4.285157.984375-6.964844 5.257813-5.980469 9.546875.851562 3.6875 4.128906 6.1875 7.757812 6.1875.59375 0 1.191407-.066406 1.792969-.207031 11.261719-2.585938 22.773438-5.519531 34.257812-8.710938.328126-5.167968.589844-10.617187.773438-16.347656-.8125-.035156-1.640625.054688-2.464844.289063zm0 0"/><path d="m359.054688 270.433594c-.828126-4.320313-5.003907-7.148438-9.324219-6.324219-85.445313 16.359375-172.097657 16.425781-257.550781.210937-4.324219-.824218-8.492188 2.019532-9.3125 6.339844-.820313 4.324219 2.019531 8.492188 6.339843 9.3125 43.53125 8.261719 87.359375 12.394532 131.195313 12.394532 44.210937 0 88.425781-4.203126 132.324218-12.609376 4.324219-.828124 7.15625-5 6.328126-9.324218zm0 0"/><path d="m434.71875 243.199219c-1.277344-.25-2.632812-.191407-3.960938.230469-12.046874 3.867187-24.175781 7.394531-36.050781 10.492187-4.257812 1.109375-6.8125 5.460937-5.699219 9.71875.933594 3.582031 4.164063 5.957031 7.703126 5.957031.664062 0 1.339843-.082031 2.015624-.257812 10.671876-2.78125 21.542969-5.921875 32.378907-9.316406 1.203125-4.742188 2.441406-10.324219 3.613281-16.824219zm0 0"/><path d="m.71875 143.488281c.714844 0 1.441406-.097656 2.164062-.300781 12.21875-3.441406 24.699219-6.625 37.09375-9.460938 4.289063-.980468 6.96875-5.253906 5.988282-9.546874-.984375-4.289063-5.257813-6.96875-9.542969-5.984376-11.757813 2.6875-23.578125 5.695313-35.203125 8.925782-.351562 5.160156-.640625 10.601562-.84375 16.339844.113281.003906.226562.027343.34375.027343zm0 0"/><path d="m43.269531 269.660156c.671875.171875 1.34375.257813 2.007813.257813 3.539062 0 6.773437-2.378907 7.707031-5.964844 1.105469-4.257813-1.449219-8.609375-5.707031-9.714844-12.546875-3.265625-25.058594-6.894531-37.191406-10.796875-1.328126-.425781-2.691407-.484375-3.972657-.230468 1.171875 6.496093 2.410157 12.082031 3.613281 16.816406 11 3.453125 22.25 6.695312 33.542969 9.632812zm0 0"/><path d="m36.417969 208.976562c.601562.136719 1.199219.203126 1.785156.203126 3.632813 0 6.914063-2.5 7.761719-6.191407.980468-4.289062-1.699219-8.5625-5.988282-9.542969-12.449218-2.855468-24.96875-6.046874-37.210937-9.496093-.828125-.234375-1.65625-.324219-2.46875-.292969.183594 5.730469.445313 11.183594.773437 16.351562 11.660157 3.242188 23.53125 6.261719 35.347657 8.96875zm0 0"/></g><path d="m356.914062 163.585938c0 71.699218-6.230468 120.757812-12.394531 151.769531 14.214844-3.429688 28.257813-7.679688 41.335938-12.953125 7.210937-19.484375 18.859375-62.722656 18.859375-138.816406 0-73.003907-10.71875-115.761719-17.957032-136.320313-13.199218-5.390625-27.40625-9.730469-41.800781-13.21875 6.019531 31.113281 11.957031 79.535156 11.957031 149.539063zm0 0" fill="#c8d2dc"/><path d="m356.914062 163.585938c0 71.699218-6.230468 120.757812-12.394531 151.769531 14.214844-3.429688 28.257813-7.679688 41.335938-12.953125 7.210937-19.484375 18.859375-62.722656 18.859375-138.816406 0-73.003907-10.71875-115.761719-17.957032-136.320313-13.199218-5.390625-27.40625-9.730469-41.800781-13.21875 6.019531 31.113281 11.957031 79.535156 11.957031 149.539063zm0 0" fill="#c8d2dc"/><path d="m356.914062 163.585938c0 71.699218-6.230468 120.757812-12.394531 151.769531 14.214844-3.429688 28.257813-7.679688 41.335938-12.953125 7.210937-19.484375 18.859375-62.722656 18.859375-138.816406 0-73.003907-10.71875-115.761719-17.957032-136.320313-13.199218-5.390625-27.40625-9.730469-41.800781-13.21875 6.019531 31.113281 11.957031 79.535156 11.957031 149.539063zm0 0" fill="#c8d2dc"/><path d="m386.542969 300.507812c3.492187-9.808593 7.847656-24.871093 11.417969-46.117187 0-.007813.003906-.015625.003906-.027344-13.488282 9.570313-29.855469 17.136719-47.40625 23.105469-1.859375 14.8125-3.953125 27.386719-6.039063 37.886719 14.214844-3.429688 28.257813-7.679688 41.335938-12.953125.226562-.609375.457031-1.242188.6875-1.894532zm0 0" fill="#b9c3cd"/><path d="m84.980469 163.585938c0-70.019532 5.9375-118.445313 11.960937-149.558594-14.367187 3.414062-28.53125 7.644531-41.683594 12.878906-7.238281 20.425781-18.078124 63.261719-18.078124 136.679688 0 76.53125 11.78125 119.835937 18.980468 139.15625 13.03125 5.125 27.027344 9.277343 41.21875 12.632812-6.167968-31.011719-12.398437-80.078125-12.398437-151.789062zm0 0" fill="#c8d2dc"/><path d="m56.160156 302.742188c13.03125 5.125 27.027344 9.277343 41.21875 12.632812-1.5-7.546875-3.007812-16.175781-4.425781-25.929688-14.855469-2.847656-29.863281-6.480468-44.136719-11.105468 2.566406 10.496094 5.164063 18.554687 7.34375 24.402344zm0 0" fill="#b9c3cd"/></svg>