<svg id="eX5Bv3O2xdR1" xmlns="http://www.w3.org/2000/svg" xmlns:xlink="http://www.w3.org/1999/xlink" viewBox="0 0 594 691" shape-rendering="geometricPrecision" text-rendering="geometricPrecision"><g id="eX5Bv3O2xdR2" mask="url(#eX5Bv3O2xdR11)"><g id="eX5Bv3O2xdR3" transform="matrix(1 0 0 1 -8.17088318000026 0.76266479499996)"><g id="eX5Bv3O2xdR4"><g id="eX5Bv3O2xdR5" transform="matrix(0.89876390957254 0 0 1 62.18838018749079 -182.72982559499934)"><path id="eX5Bv3O2xdR6" d="M519.962000,395C519.962000,403.501000,514,403.501000,514,412.001000C514,420.501000,519.962000,420.502000,519.962000,429.002000C519.962000,437.502000,514,437.502000,514,446.002000C514,454.502000,519.962000,454.502000,519.962000,463.002000C519.962000,471.501000,514,471.501000,514,480.001000C514,488.500000,519.962000,488.500000,519.962000,497C519.962000,505.500000,514,505.500000,514,514L529.038000,514C529.038000,505.500000,535,505.500000,535,497C535,488.501000,529.038000,488.501000,529.038000,480.001000C529.038000,471.501000,535,471.501000,535,463.002000C535,454.502000,529.038000,454.502000,529.038000,446.002000C529.038000,437.502000,535,437.502000,535,429.002000C535,420.501000,529.038000,420.501000,529.038000,412.001000C529.038000,403.501000,535,403.500000,535,395" fill="rgb(255,248,151)" stroke="none" stroke-width="1"/><path id="eX5Bv3O2xdR7" d="M512.226000,395C512.226000,403.501000,506,403.501000,506,412.001000C506,420.501000,512.226000,420.502000,512.226000,429.002000C512.226000,437.502000,506,437.502000,506,446.002000C506,454.502000,512.226000,454.502000,512.226000,463.002000C512.226000,471.501000,506,471.501000,506,480.001000C506,488.500000,512.226000,488.500000,512.226000,497C512.226000,505.500000,506,505.500000,506,514L521.706000,514C521.706000,505.500000,527.932000,505.500000,527.932000,497C527.932000,488.501000,521.706000,488.501000,521.706000,480.001000C521.706000,471.501000,527.932000,471.501000,527.932000,463.002000C527.932000,454.502000,521.706000,454.502000,521.706000,446.002000C521.706000,437.502000,527.932000,437.502000,527.932000,429.002000C527.932000,420.501000,521.706000,420.501000,521.706000,412.001000C521.706000,403.501000,527.932000,403.500000,527.932000,395" fill="rgb(242,142,28)" stroke="none" stroke-width="1"/></g><g id="eX5Bv3O2xdR8" transform="matrix(0.89876390957254 0 0 1 62.18838018749102 -281.93821847499942)"><path id="eX5Bv3O2xdR9" d="M519.962000,395C519.962000,403.501000,514,403.501000,514,412.001000C514,420.501000,519.962000,420.502000,519.962000,429.002000C519.962000,437.502000,514,437.502000,514,446.002000C514,454.502000,519.962000,454.502000,519.962000,463.002000C519.962000,471.501000,514,471.501000,514,480.001000C514,488.500000,519.962000,488.500000,519.962000,497C519.962000,505.500000,514,505.500000,514,514L529.038000,514C529.038000,505.500000,535,505.500000,535,497C535,488.501000,529.038000,488.501000,529.038000,480.001000C529.038000,471.501000,535,471.501000,535,463.002000C535,454.502000,529.038000,454.502000,529.038000,446.002000C529.038000,437.502000,535,437.502000,535,429.002000C535,420.501000,529.038000,420.501000,529.038000,412.001000C529.038000,403.501000,535,403.500000,535,395" fill="rgb(255,248,151)" stroke="none" stroke-width="1"/><path id="eX5Bv3O2xdR10" d="M512.226000,395C512.226000,403.501000,506,403.501000,506,412.001000C506,420.501000,512.226000,420.502000,512.226000,429.002000C512.226000,437.502000,506,437.502000,506,446.002000C506,454.502000,512.226000,454.502000,512.226000,463.002000C512.226000,471.501000,506,471.501000,506,480.001000C506,488.500000,512.226000,488.500000,512.226000,497C512.226000,505.500000,506,505.500000,506,514L521.706000,514C521.706000,505.500000,527.932000,505.500000,527.932000,497C527.932000,488.501000,521.706000,488.501000,521.706000,480.001000C521.706000,471.501000,527.932000,471.501000,527.932000,463.002000C527.932000,454.502000,521.706000,454.502000,521.706000,446.002000C521.706000,437.502000,527.932000,437.502000,527.932000,429.002000C527.932000,420.501000,521.706000,420.501000,521.706000,412.001000C521.706000,403.501000,527.932000,403.500000,527.932000,395" transform="matrix(1 0 0 1 1.58581383255353 0)" fill="rgb(242,142,28)" stroke="none" stroke-width="1"/></g></g></g><mask id="eX5Bv3O2xdR11" mask-type="alpha"><rect id="eX5Bv3O2xdR12" width="54" height="146" rx="0" ry="0" transform="matrix(1 0 0 1 497 349)" fill="rgb(196,196,196)" stroke="none" stroke-width="1"/></mask></g><g id="eX5Bv3O2xdR13" transform="matrix(0.98480775301221 -0.17364817766693 0.17364817766693 0.98480775301221 -47.63691437471630 56.03209802885223)" clip-path="url(#eX5Bv3O2xdR40)"><g id="eX5Bv3O2xdR14"><path id="eX5Bv3O2xdR15" d="M544.131000,305.622000L502.284000,298.243000C497.953000,297.479000,493.821000,300.372000,493.057000,304.707000C492.293000,309.039000,495.186000,313.171000,499.518000,313.934000L512.593000,316.240000L508.627000,338.733000C507.863000,343.064000,510.760000,347.197000,515.092000,347.960000C519.423000,348.724000,523.559000,345.832000,524.323000,341.500000L528.289000,319.007000L541.364000,321.313000C545.696000,322.077000,549.827000,319.184000,550.591000,314.852000C551.356000,310.517000,548.463000,306.385000,544.131000,305.622000L544.131000,305.622000Z" fill="rgb(200,210,220)" stroke="none" stroke-width="1"/><path id="eX5Bv3O2xdR16" d="M242.626000,397.533000L397.453000,424.833000L393.424000,500.478000C393.086000,506.848000,387.251000,511.483000,380.973000,510.376000L357.661000,506.266000C354.714000,505.746000,352.122000,504.004000,350.525000,501.473000L338.680000,482.718000C337.080000,480.186000,334.491000,478.449000,331.544000,477.929000L131.578000,442.670000C128.631000,442.150000,125.600000,442.897000,123.234000,444.729000L105.685000,458.301000C103.319000,460.133000,100.287000,460.884000,97.340600,460.364000L74.032200,456.254000C67.750200,455.147000,63.857000,448.792000,65.713700,442.694000L87.803700,370.234000L242.626000,397.533000Z" fill="rgb(73,89,89)" stroke="none" stroke-width="1"/><path id="eX5Bv3O2xdR17" d="M473.586000,332.554000L467.683000,366.030000L501.159000,371.932000C505.779000,372.747000,508.865000,377.155000,508.051000,381.775000L506.944000,388.053000C506.129000,392.673000,509.215000,397.081000,513.839000,397.896000L529.531000,400.663000C534.151000,401.477000,538.558000,398.391000,539.373000,393.771000L544.169000,366.570000C546.206000,355.017000,538.491000,343.998000,526.938000,341.962000L473.586000,332.554000Z" fill="rgb(255,224,70)" stroke="none" stroke-width="1"/><path id="eX5Bv3O2xdR18" d="M526.935000,341.961000L515.363000,339.920000C526.919000,341.958000,534.635000,352.973000,532.598000,364.529000L527.801000,391.731000C526.987000,396.351000,522.579000,399.437000,517.959000,398.622000L529.530000,400.663000C534.151000,401.477000,538.558000,398.391000,539.373000,393.771000L544.169000,366.570000C546.207000,355.014000,538.491000,343.998000,526.935000,341.961000L526.935000,341.961000Z" fill="rgb(238,199,7)" stroke="none" stroke-width="1"/><path id="eX5Bv3O2xdR19" d="M393.424000,500.478000L397.453000,424.833000L87.803700,370.234000L82.273000,388.373000C142.106000,421.588000,219.299000,436.563000,236.818000,439.652000C251.701000,442.277000,310.924000,451.688000,369.970000,447.031000C376.373000,446.526000,381.761000,451.759000,381.419000,458.176000L378.661000,509.969000L380.973000,510.376000C387.251000,511.483000,393.086000,506.848000,393.424000,500.478000L393.424000,500.478000Z" fill="rgb(63,74,74)" stroke="none" stroke-width="1"/><path id="eX5Bv3O2xdR20" d="M49.724300,222.221000C40.710200,273.342000,41.384500,306.050000,43.271500,323.760000C44.433800,334.647000,49.813100,344.631000,58.184300,351.684000C111.536000,396.615000,212.683000,418.139000,239.769000,422.915000C266.863000,427.693000,366.636000,441.596000,431.731000,417.523000C441.957000,413.741000,450.379000,406.222000,455.177000,396.426000C463.009000,380.437000,474.839000,349.927000,483.859000,298.770000C492.880000,247.610000,492.199000,214.894000,490.307000,197.191000C489.149000,186.348000,483.807000,176.402000,475.491000,169.351000C422.555000,124.465000,324.044000,103.402000,296.950000,98.624900C269.864000,93.848900,167.456000,79.480400,101.954000,103.455000C91.675200,107.219000,83.205500,114.761000,78.389100,124.598000C70.558800,140.595000,58.738400,171.099000,49.724300,222.221000L49.724300,222.221000Z" fill="rgb(167,117,84)" stroke="none" stroke-width="1"/><path id="eX5Bv3O2xdR21" d="M475.392000,169.278000C474.892000,168.857000,474.387000,168.435000,473.882000,168.016000C475.441000,186.458000,475.437000,218.066000,467.054000,265.606000C458.345000,315,447.016000,345.147000,439.192000,361.558000C434.033000,372.389000,424.812000,380.818000,413.519000,384.872000C348.403000,408.232000,249.866000,394.494000,222.964000,389.751000C196.132000,385.020000,96.617000,363.847000,42.893600,319.763000C43.010300,321.148000,43.132200,322.458000,43.266400,323.700000C44.425300,334.606000,49.788300,344.615000,58.181200,351.679000C111.529000,396.614000,212.683000,418.139000,239.769000,422.915000C266.863000,427.693000,366.640000,441.597000,431.736000,417.519000C441.957000,413.741000,450.375000,406.221000,455.171000,396.433000C463.004000,380.448000,474.834000,349.934000,483.855000,298.770000C492.808000,247.994000,492.208000,215.387000,490.347000,197.594000C489.197000,186.571000,483.856000,176.439000,475.392000,169.278000L475.392000,169.278000Z" fill="rgb(145,84,49)" stroke="none" stroke-width="1"/><path id="eX5Bv3O2xdR22" d="M392.382000,321.183000C302.462000,320.460000,213.853000,304.899000,129.019000,274.924000C124.877000,273.467000,120.322000,275.635000,118.853000,279.783000C117.388000,283.931000,119.564000,288.484000,123.712000,289.949000C166.794000,305.169000,210.817000,316.743000,255.498000,324.622000C300.526000,332.562000,346.233000,336.746000,392.255000,337.114000C396.655000,337.152000,400.250000,333.613000,400.284000,329.212000C400.322000,324.812000,396.778000,321.221000,392.382000,321.183000L392.382000,321.183000Z" fill="rgb(145,84,49)" stroke="none" stroke-width="1"/><path id="eX5Bv3O2xdR23" d="M157.963000,122.045000C153.562000,122.102000,150.042000,125.714000,150.099000,130.111000C150.156000,134.512000,153.772000,138.033000,158.169000,137.975000C245.140000,136.842000,330.468000,151.959000,411.782000,182.908000C412.266000,183.089000,412.754000,183.222000,413.242000,183.308000C416.932000,183.959000,420.681000,181.927000,422.063000,178.295000C423.629000,174.184000,421.565000,169.580000,417.450000,168.014000C334.251000,136.351000,246.947000,120.882000,157.963000,122.045000L157.963000,122.045000Z" fill="rgb(145,84,49)" stroke="none" stroke-width="1"/><path id="eX5Bv3O2xdR24" d="M70.208600,143.706000C70.705100,143.905000,71.215400,144.070000,71.750100,144.164000C72.542600,144.304000,73.372100,144.323000,74.209400,144.209000C86.800600,142.491000,99.585200,141.116000,112.217000,140.110000C116.602000,139.761000,119.877000,135.924000,119.528000,131.538000C119.179000,127.150000,115.338000,123.874000,110.953000,124.223000C99.628000,125.126000,88.189100,126.338000,76.860900,127.799000C74.823900,132.176000,72.572900,137.451000,70.208600,143.706000L70.208600,143.706000Z" fill="rgb(145,84,49)" stroke="none" stroke-width="1"/><path id="eX5Bv3O2xdR25" d="M411.139000,229.270000C324.765000,198.630000,234.476000,182.655000,142.785000,181.786000C138.385000,181.744000,134.787000,185.278000,134.745000,189.678000C134.703000,194.077000,138.236000,197.683000,142.636000,197.721000C232.606000,198.572000,321.193000,214.251000,405.934000,244.330000C406.352000,244.475000,406.788000,244.591000,407.226000,244.669000C411.558000,245.432000,415.686000,242.539000,416.450000,238.203000C417.143000,234.272000,414.817000,230.502000,411.139000,229.270000L411.139000,229.270000Z" fill="rgb(145,84,49)" stroke="none" stroke-width="1"/><path id="eX5Bv3O2xdR26" d="M460.896000,186.233000C456.892000,184.397000,452.163000,186.157000,450.331000,190.158000C448.496000,194.154000,450.252000,198.886000,454.252000,200.718000C465.372000,205.816000,476.569000,211.328000,487.538000,217.102000C488.290000,217.496000,489.073000,217.757000,489.865000,217.897000C490.396000,217.991000,490.928000,218.009000,491.458000,217.996000C491.379000,211.310000,491.065000,205.582000,490.652000,200.770000C480.808000,195.678000,470.822000,190.788000,460.896000,186.233000L460.896000,186.233000Z" fill="rgb(145,84,49)" stroke="none" stroke-width="1"/><path id="eX5Bv3O2xdR27" d="M446.637000,251.352000C444.919000,255.404000,446.811000,260.081000,450.860000,261.799000C462.131000,266.579000,473.533000,271.738000,484.758000,277.141000C485.434000,277.466000,486.133000,277.689000,486.833000,277.812000C486.944000,277.832000,487.056000,277.828000,487.165000,277.843000C487.961000,272.156000,488.626000,266.744000,489.172000,261.601000C478.528000,256.523000,467.750000,251.652000,457.080000,247.129000C453.032000,245.407000,448.355000,247.300000,446.637000,251.352000L446.637000,251.352000Z" fill="rgb(145,84,49)" stroke="none" stroke-width="1"/><path id="eX5Bv3O2xdR28" d="M477.784000,317.298000C465.272000,318.546000,452.756000,319.501000,440.591000,320.124000C436.200000,320.350000,432.819000,324.093000,433.044000,328.488000C433.242000,332.267000,436.036000,335.298000,439.609000,335.928000C440.194000,336.031000,440.794000,336.070000,441.411000,336.036000C452.951000,335.445000,464.797000,334.555000,476.661000,333.406000C477.882000,328.374000,479.086000,323.053000,480.262000,317.441000C479.468000,317.265000,478.636000,317.210000,477.784000,317.298000L477.784000,317.298000Z" fill="rgb(145,84,49)" stroke="none" stroke-width="1"/><path id="eX5Bv3O2xdR29" d="M384.955000,388.748000C384.890000,384.349000,381.268000,380.839000,376.870000,380.901000C289.882000,382.174000,204.535000,367.192000,123.196000,336.385000C119.080000,334.823000,114.482000,336.899000,112.924000,341.012000C111.365000,345.128000,113.438000,349.725000,117.550000,351.284000C158.986000,366.979000,201.430000,378.660000,244.600000,386.272000C288.139000,393.949000,332.412000,397.487000,377.104000,396.832000C381.506000,396.767000,385.019000,393.150000,384.955000,388.748000L384.955000,388.748000Z" fill="rgb(145,84,49)" stroke="none" stroke-width="1"/><path id="eX5Bv3O2xdR30" d="M464.199000,375.066000C462.984000,374.598000,461.639000,374.421000,460.258000,374.605000C447.722000,376.322000,435.165000,377.689000,422.933000,378.678000C418.547000,379.031000,415.275000,382.873000,415.633000,387.259000C415.930000,390.949000,418.699000,393.849000,422.184000,394.464000C422.838000,394.579000,423.518000,394.615000,424.214000,394.560000C435.207000,393.674000,446.458000,392.469000,457.719000,391.007000C459.727000,386.546000,461.916000,381.264000,464.199000,375.066000L464.199000,375.066000Z" fill="rgb(145,84,49)" stroke="none" stroke-width="1"/><path id="eX5Bv3O2xdR31" d="M54.106600,201.507000C54.810600,201.631000,55.543100,201.661000,56.290100,201.586000C68.920800,200.319000,81.764500,199.351000,94.463100,198.710000C98.857300,198.490000,102.238000,194.746000,102.018000,190.348000C101.794000,185.954000,98.050400,182.573000,93.659400,182.798000C81.613600,183.403000,69.450500,184.312000,57.441200,185.475000C56.198900,190.496000,54.969300,195.804000,53.772900,201.420000C53.883700,201.444000,53.991200,201.486000,54.106600,201.507000Z" fill="rgb(145,84,49)" stroke="none" stroke-width="1"/><path id="eX5Bv3O2xdR32" d="M74.101400,333.151000C74.733200,333.437000,75.380000,333.638000,76.034000,333.753000C79.519300,334.368000,83.117600,332.587000,84.659700,329.217000C86.487700,325.216000,84.727500,320.487000,80.726300,318.659000C68.937100,313.264000,57.245700,307.518000,45.974800,301.568000C44.740800,300.918000,43.408400,300.624000,42.102500,300.651000C42.128600,307.252000,42.378000,312.968000,42.740800,317.840000C52.974000,323.150000,63.490100,328.297000,74.101400,333.151000Z" fill="rgb(145,84,49)" stroke="none" stroke-width="1"/><path id="eX5Bv3O2xdR33" d="M77.891600,272.199000C78.460300,272.438000,79.037400,272.608000,79.614400,272.709000C83.192000,273.340000,86.857500,271.448000,88.333300,267.960000C90.043700,263.906000,88.146800,259.232000,84.093100,257.522000C72.328900,252.548000,60.553700,247.231000,49.096500,241.709000C48.321600,241.334000,47.521700,241.102000,46.716100,240.991000C45.901800,246.667000,45.212700,252.082000,44.638400,257.229000C55.558400,262.446000,66.724800,267.481000,77.891600,272.199000Z" fill="rgb(145,84,49)" stroke="none" stroke-width="1"/><path id="eX5Bv3O2xdR34" d="M401.400000,283.152000C388.949000,353.762000,374.295000,400.993000,362.839000,430.463000C377.434000,429.554000,392.001000,427.807000,405.796000,424.885000C416.281000,406.949000,435.261000,366.390000,448.474000,291.452000C461.151000,219.557000,458.020000,175.588000,454.462000,154.085000C442.399000,146.484000,429.162000,139.743000,415.592000,133.808000C416.117000,165.494000,413.556000,214.211000,401.400000,283.152000L401.400000,283.152000Z" fill="rgb(200,210,220)" stroke="none" stroke-width="1"/><path id="eX5Bv3O2xdR35" d="M401.400000,283.152000C388.949000,353.762000,374.295000,400.993000,362.839000,430.463000C377.434000,429.554000,392.001000,427.807000,405.796000,424.885000C416.281000,406.949000,435.261000,366.390000,448.474000,291.452000C461.151000,219.557000,458.020000,175.588000,454.462000,154.085000C442.399000,146.484000,429.162000,139.743000,415.592000,133.808000C416.117000,165.494000,413.556000,214.211000,401.400000,283.152000L401.400000,283.152000Z" fill="rgb(200,210,220)" stroke="none" stroke-width="1"/><path id="eX5Bv3O2xdR36" d="M401.400000,283.152000C388.949000,353.762000,374.295000,400.993000,362.839000,430.463000C377.434000,429.554000,392.001000,427.807000,405.796000,424.885000C416.281000,406.949000,435.261000,366.390000,448.474000,291.452000C461.151000,219.557000,458.020000,175.588000,454.462000,154.085000C442.399000,146.484000,429.162000,139.743000,415.592000,133.808000C416.117000,165.494000,413.556000,214.211000,401.400000,283.152000L401.400000,283.152000Z" fill="rgb(200,210,220)" stroke="none" stroke-width="1"/><path id="eX5Bv3O2xdR37" d="M406.803000,423.138000C411.945000,414.085000,418.850000,400.007000,426.055000,379.704000C426.057000,379.696000,426.062000,379.689000,426.064000,379.678000C411.119000,386.761000,393.686000,391.370000,375.366000,394.200000C370.962000,408.465000,366.717000,420.484000,362.839000,430.463000C377.434000,429.554000,392.001000,427.807000,405.796000,424.884000C406.125000,424.324000,406.462000,423.740000,406.803000,423.138000L406.803000,423.138000Z" fill="rgb(185,195,205)" stroke="none" stroke-width="1"/><path id="eX5Bv3O2xdR38" d="M133.598000,235.931000C145.757000,166.975000,160.013000,120.316000,171.348000,90.721600C156.606000,91.588900,141.923000,93.295500,128.061000,96.166500C117.386000,115.025000,99.272500,155.328000,86.523600,227.630000C73.234100,302.999000,77.316600,347.692000,81.051500,367.969000C92.994800,375.279000,106.057000,381.798000,119.450000,387.567000C118.761000,355.955000,121.146000,306.553000,133.598000,235.931000Z" fill="rgb(200,210,220)" stroke="none" stroke-width="1"/><path id="eX5Bv3O2xdR39" d="M81.051500,367.968000C92.994900,375.278000,106.057000,381.798000,119.450000,387.567000C119.284000,379.874000,119.297000,371.114000,119.595000,361.262000C105.459000,355.878000,91.310200,349.695000,78.056800,342.661000C78.761600,353.444000,79.920400,361.831000,81.051500,367.968000L81.051500,367.968000Z" fill="rgb(185,195,205)" stroke="none" stroke-width="1"/></g><clipPath id="eX5Bv3O2xdR40"><rect id="eX5Bv3O2xdR41" width="512" height="512" rx="0" ry="0" transform="matrix(0.98480800000000 0.17364800000000 -0.17364800000000 0.98480800000000 88.90779999999999 0)" fill="rgb(255,255,255)" stroke="none" stroke-width="1"/></clipPath></g><script><![CDATA[!function(t,n){"object"==typeof exports&&"undefined"!=typeof module?module.exports=n():"function"==typeof define&&define.amd?define(n):(t="undefined"!=typeof globalThis?globalThis:t||self).__SVGATOR_PLAYER__=n()}(this,(function(){"use strict";function t(n){return(t="function"==typeof Symbol&&"symbol"==typeof Symbol.iterator?function(t){return typeof t}:function(t){return t&&"function"==typeof Symbol&&t.constructor===Symbol&&t!==Symbol.prototype?"symbol":typeof t})(n)}function n(t,n){if(!(t instanceof n))throw new TypeError("Cannot call a class as a function")}function r(t,n){for(var r=0;r<n.length;r++){var e=n[r];e.enumerable=e.enumerable||!1,e.configurable=!0,"value"in e&&(e.writable=!0),Object.defineProperty(t,e.key,e)}}function e(t,n,e){return n&&r(t.prototype,n),e&&r(t,e),t}function i(t){return(i=Object.setPrototypeOf?Object.getPrototypeOf:function(t){return t.__proto__||Object.getPrototypeOf(t)})(t)}function o(t,n){return(o=Object.setPrototypeOf||function(t,n){return t.__proto__=n,t})(t,n)}function u(t,n){return!n||"object"!=typeof n&&"function"!=typeof n?function(t){if(void 0===t)throw new ReferenceError("this hasn't been initialised - super() hasn't been called");return t}(t):n}function a(t){var n=function(){if("undefined"==typeof Reflect||!Reflect.construct)return!1;if(Reflect.construct.sham)return!1;if("function"==typeof Proxy)return!0;try{return Boolean.prototype.valueOf.call(Reflect.construct(Boolean,[],(function(){}))),!0}catch(t){return!1}}();return function(){var r,e=i(t);if(n){var o=i(this).constructor;r=Reflect.construct(e,arguments,o)}else r=e.apply(this,arguments);return u(this,r)}}function l(t,n,r){return(l="undefined"!=typeof Reflect&&Reflect.get?Reflect.get:function(t,n,r){var e=function(t,n){for(;!Object.prototype.hasOwnProperty.call(t,n)&&null!==(t=i(t)););return t}(t,n);if(e){var o=Object.getOwnPropertyDescriptor(e,n);return o.get?o.get.call(r):o.value}})(t,n,r||t)}var f=Math.abs;function s(t){return t}function c(t,n,r){var e=1-r;return 3*r*e*(t*e+n*r)+r*r*r}function h(){var t=arguments.length>0&&void 0!==arguments[0]?arguments[0]:0,n=arguments.length>1&&void 0!==arguments[1]?arguments[1]:0,r=arguments.length>2&&void 0!==arguments[2]?arguments[2]:1,e=arguments.length>3&&void 0!==arguments[3]?arguments[3]:1;return t<0||t>1||r<0||r>1?null:f(t-n)<=1e-5&&f(r-e)<=1e-5?s:function(i){if(i<=0)return t>0?i*n/t:0===n&&r>0?i*e/r:0;if(i>=1)return r<1?1+(i-1)*(e-1)/(r-1):1===r&&t<1?1+(i-1)*(n-1)/(t-1):1;for(var o,u=0,a=1;u<a;){var l=c(t,r,o=(u+a)/2);if(f(i-l)<1e-5)break;l<i?u=o:a=o}return c(n,e,o)}}function v(){return 1}function y(t){return 1===t?1:0}function d(){var t=arguments.length>0&&void 0!==arguments[0]?arguments[0]:1,n=arguments.length>1&&void 0!==arguments[1]?arguments[1]:0;if(1===t){if(0===n)return y;if(1===n)return v}var r=1/t;return function(t){return t>=1?1:(t+=n*r)-t%r}}function g(t){var n=arguments.length>1&&void 0!==arguments[1]?arguments[1]:2;if(Number.isInteger(t))return t;var r=Math.pow(10,n);return Math.round(t*r)/r}var p=Math.PI/180;function m(t,n,r){return t>=.5?r:n}function b(t,n,r){return 0===t||n===r?n:t*(r-n)+n}function w(t,n,r){var e=b(t,n,r);return e<=0?0:e}function x(t,n,r){return 0===t?n:1===t?r:{x:b(t,n.x,r.x),y:b(t,n.y,r.y)}}function k(t,n,r){var e=function(t,n,r){return Math.round(b(t,n,r))}(t,n,r);return e<=0?0:e>=255?255:e}function A(t,n,r){return 0===t?n:1===t?r:{r:k(t,n.r,r.r),g:k(t,n.g,r.g),b:k(t,n.b,r.b),a:b(t,null==n.a?1:n.a,null==r.a?1:r.a)}}function _(t,n,r){if(0===t)return n;if(1===t)return r;var e=n.length;if(e!==r.length)return m(t,n,r);for(var i=[],o=0;o<e;o++)i.push(A(t,n[o],r[o]));return i}function S(t,n){for(var r=[],e=0;e<t;e++)r.push(n);return r}function O(t,n){if(--n<=0)return t;var r=(t=Object.assign([],t)).length;do{for(var e=0;e<r;e++)t.push(t[e])}while(--n>0);return t}var M,j=function(){function t(r){n(this,t),this.list=r,this.length=r.length}return e(t,[{key:"setAttribute",value:function(t,n){for(var r=this.list,e=0;e<this.length;e++)r[e].setAttribute(t,n)}},{key:"removeAttribute",value:function(t){for(var n=this.list,r=0;r<this.length;r++)n[r].removeAttribute(t)}},{key:"style",value:function(t,n){for(var r=this.list,e=0;e<this.length;e++)r[e].style[t]=n}}]),t}(),F=/-./g,P=function(t,n){return n.toUpperCase()};function B(t){return"function"==typeof t?t:m}function I(t){return t?"function"==typeof t?t:Array.isArray(t)?function(t){var n=arguments.length>1&&void 0!==arguments[1]?arguments[1]:s;if(!Array.isArray(t))return n;switch(t.length){case 1:return d(t[0])||n;case 2:return d(t[0],t[1])||n;case 4:return h(t[0],t[1],t[2],t[3])||n}return n}(t,null):function(t,n){var r=arguments.length>2&&void 0!==arguments[2]?arguments[2]:s;switch(t){case"linear":return s;case"steps":return d(n.steps||1,n.jump||0)||r;case"bezier":case"cubic-bezier":return h(n.x1||0,n.y1||0,n.x2||0,n.y2||0)||r}return r}(t.type,t.value,null):null}function R(t,n,r){var e=arguments.length>3&&void 0!==arguments[3]&&arguments[3],i=n.length-1;if(t<=n[0].t)return e?[0,0,n[0].v]:n[0].v;if(t>=n[i].t)return e?[i,1,n[i].v]:n[i].v;var o,u=n[0],a=null;for(o=1;o<=i;o++){if(!(t>n[o].t)){a=n[o];break}u=n[o]}return null==a?e?[i,1,n[i].v]:n[i].v:u.t===a.t?e?[o,1,a.v]:a.v:(t=(t-u.t)/(a.t-u.t),u.e&&(t=u.e(t)),e?[o,t,r(t,u.v,a.v)]:r(t,u.v,a.v))}function q(t,n){var r=arguments.length>2&&void 0!==arguments[2]?arguments[2]:null;return t&&t.length?"function"!=typeof n?null:("function"!=typeof r&&(r=null),function(e){var i=R(e,t,n);return null!=i&&r&&(i=r(i)),i}):null}function E(t,n){return t.t-n.t}function T(n,r,e,i,o){var u,a="@"===e[0],l="#"===e[0],f=M[e],s=m;switch(a?(u=e.substr(1),e=u.replace(F,P)):l&&(e=e.substr(1)),t(f)){case"function":if(s=f(i,o,R,I,e,a,r,n),l)return s;break;case"string":s=q(i,B(f));break;case"object":if((s=q(i,B(f.i),f.f))&&"function"==typeof f.u)return f.u(r,s,e,a,n)}return s?function(t,n,r){var e=arguments.length>3&&void 0!==arguments[3]&&arguments[3];if(e)return t instanceof j?function(e){return t.style(n,r(e))}:function(e){return t.style[n]=r(e)};if(Array.isArray(n)){var i=n.length;return function(e){var o=r(e);if(null==o)for(var u=0;u<i;u++)t[u].removeAttribute(n);else for(var a=0;a<i;a++)t[a].setAttribute(n,o)}}return function(e){var i=r(e);null==i?t.removeAttribute(n):t.setAttribute(n,i)}}(r,e,s,a):null}function N(n,r,e,i){if(!i||"object"!==t(i))return null;var o=null,u=null;return Array.isArray(i)?u=function(t){if(!t||!t.length)return null;for(var n=0;n<t.length;n++)t[n].e&&(t[n].e=I(t[n].e));return t.sort(E)}(i):(u=i.keys,o=i.data||null),u?T(n,r,e,u,o):null}function C(t,n,r){if(!r)return null;var e=[];for(var i in r)if(r.hasOwnProperty(i)){var o=N(t,n,i,r[i]);o&&e.push(o)}return e.length?e:null}function z(t,n){if(!n.duration||n.duration<0)return null;var r=function(t,n){if(!n)return null;var r=[];if(Array.isArray(n))for(var e=n.length,i=0;i<e;i++){var o=n[i];if(2===o.length){var u=null;if("string"==typeof o[0])u=t.getElementById(o[0]);else if(Array.isArray(o[0])){u=[];for(var a=0;a<o[0].length;a++)if("string"==typeof o[0][a]){var l=t.getElementById(o[0][a]);l&&u.push(l)}u=u.length?1===u.length?u[0]:new j(u):null}if(u){var f=C(t,u,o[1]);f&&(r=r.concat(f))}}}else for(var s in n)if(n.hasOwnProperty(s)){var c=t.getElementById(s);if(c){var h=C(t,c,n[s]);h&&(r=r.concat(h))}}return r.length?r:null}(t,n.elements);return r?function(t,n){var r=arguments.length>2&&void 0!==arguments[2]?arguments[2]:1/0,e=arguments.length>3&&void 0!==arguments[3]?arguments[3]:1,i=arguments.length>4&&void 0!==arguments[4]&&arguments[4],o=arguments.length>5&&void 0!==arguments[5]?arguments[5]:1,u=t.length,a=e>0?n:0;i&&r%2==0&&(a=n-a);var l=null;return function(f,s){var c=f%n,h=1+(f-c)/n;s*=e,i&&h%2==0&&(s=-s);var v=!1;if(h>r)c=a,v=!0,-1===o&&(c=e>0?0:n);else if(s<0&&(c=n-c),c===l)return!1;l=c;for(var y=0;y<u;y++)t[y](c);return v}}(r,n.duration,n.iterations||1/0,n.direction||1,!!n.alternate,n.fill||1):null}var L=function(){function t(r,e){var i=arguments.length>2&&void 0!==arguments[2]?arguments[2]:{};n(this,t),this._id=0,this._running=!1,this._rollingBack=!1,this._animations=r,this.duration=e.duration,this.alternate=e.alternate,this.fill=e.fill,this.iterations=e.iterations,this.direction=i.direction||1,this.speed=i.speed||1,this.fps=i.fps||100,this.offset=i.offset||0,this.rollbackStartOffset=0}return e(t,[{key:"_rollback",value:function(){var t=this,n=1/0,r=null;this.rollbackStartOffset=this.offset,this._rollingBack||(this._rollingBack=!0,this._running=!0);this._id=window.requestAnimationFrame((function e(i){if(t._rollingBack){null==r&&(r=i);var o=i-r,u=t.rollbackStartOffset-o,a=Math.round(u*t.speed);if(a>t.duration&&n!=1/0){var l=!!t.alternate&&a/t.duration%2>1,f=a%t.duration;a=(f+=l?t.duration:0)||t.duration}var s=t.fps?1e3/t.fps:0,c=Math.max(0,a);if(c<n-s){t.offset=c,n=c;for(var h=t._animations,v=h.length,y=0;y<v;y++)h[y](c,t.direction)}var d=!1;if(t.iterations>0&&-1===t.fill){var g=t.iterations*t.duration,p=g==a;a=p?0:a,t.offset=p?0:t.offset,d=a>g}a>0&&t.offset>=a&&!d?t._id=window.requestAnimationFrame(e):t.stop()}}))}},{key:"_start",value:function(){var t=this,n=arguments.length>0&&void 0!==arguments[0]?arguments[0]:0,r=-1/0,e=null,i={},o=function o(u){t._running=!0,null==e&&(e=u);var a=Math.round((u-e+n)*t.speed),l=t.fps?1e3/t.fps:0;if(a>r+l&&!t._rollingBack){t.offset=a,r=a;for(var f=t._animations,s=f.length,c=0,h=0;h<s;h++)i[h]?c++:(i[h]=f[h](a,t.direction),i[h]&&c++);if(c===s)return void t._stop()}t._id=window.requestAnimationFrame(o)};this._id=window.requestAnimationFrame(o)}},{key:"_stop",value:function(){this._id&&window.cancelAnimationFrame(this._id),this._running=!1,this._rollingBack=!1}},{key:"play",value:function(){!this._rollingBack&&this._running||(this._rollingBack=!1,this.rollbackStartOffset>this.duration&&(this.offset=this.rollbackStartOffset-(this.rollbackStartOffset-this.offset)%this.duration,this.rollbackStartOffset=0),this._start(this.offset))}},{key:"stop",value:function(){this._stop(),this.offset=0,this.rollbackStartOffset=0;var t=this.direction,n=this._animations;window.requestAnimationFrame((function(){for(var r=0;r<n.length;r++)n[r](0,t)}))}},{key:"reachedToEnd",value:function(){return this.iterations>0&&this.offset>=this.iterations*this.duration}},{key:"restart",value:function(){this._stop(),this.offset=0,this._start()}},{key:"pause",value:function(){this._stop()}},{key:"reverse",value:function(){this.direction=-this.direction}}],[{key:"build",value:function(n,r){return(n=function(t,n){if(M=n,!t||!t.root||!Array.isArray(t.animations))return null;for(var r=document.getElementsByTagName("svg"),e=!1,i=0;i<r.length;i++)if(r[i].id===t.root&&!r[i].svgatorAnimation){(e=r[i]).svgatorAnimation=!0;break}if(!e)return null;var o=t.animations.map((function(t){return z(e,t)})).filter((function(t){return!!t}));return o.length?{element:e,animations:o,animationSettings:t.animationSettings,options:t.options||void 0}:null}(n,r))?{el:n.element,options:n.options||{},player:new t(n.animations,n.animationSettings,n.options)}:null}}]),t}();!function(){for(var t=0,n=["ms","moz","webkit","o"],r=0;r<n.length&&!window.requestAnimationFrame;++r)window.requestAnimationFrame=window[n[r]+"RequestAnimationFrame"],window.cancelAnimationFrame=window[n[r]+"CancelAnimationFrame"]||window[n[r]+"CancelRequestAnimationFrame"];window.requestAnimationFrame||(window.requestAnimationFrame=function(n){var r=Date.now(),e=Math.max(0,16-(r-t)),i=window.setTimeout((function(){n(r+e)}),e);return t=r+e,i},window.cancelAnimationFrame=window.clearTimeout)}();var D=/\.0+$/g;function Q(t){return Number.isInteger(t)?t+"":t.toFixed(6).replace(D,"")}function U(t){var n=arguments.length>1&&void 0!==arguments[1]?arguments[1]:" ";return t&&t.length?t.map(Q).join(n):""}function V(t){return t?null==t.a||t.a>=1?"rgb("+t.r+","+t.g+","+t.b+")":"rgba("+t.r+","+t.g+","+t.b+","+t.a+")":"transparent"}var $={f:null,i:function(t,n,r){return 0===t?n:1===t?r:{x:w(t,n.x,r.x),y:w(t,n.y,r.y)}},u:function(t,n){return function(r){var e=n(r);t.setAttribute("rx",Q(e.x)),t.setAttribute("ry",Q(e.y))}}},G={f:null,i:function(t,n,r){return 0===t?n:1===t?r:{width:w(t,n.width,r.width),height:w(t,n.height,r.height)}},u:function(t,n){return function(r){var e=n(r);t.setAttribute("width",Q(e.width)),t.setAttribute("height",Q(e.height))}}},H=Math.sin,Y=Math.cos,Z=Math.acos,J=Math.asin,K=Math.tan,W=Math.atan2,X=Math.PI/180,tt=180/Math.PI,nt=Math.sqrt,rt=function(){function t(){var r=arguments.length>0&&void 0!==arguments[0]?arguments[0]:1,e=arguments.length>1&&void 0!==arguments[1]?arguments[1]:0,i=arguments.length>2&&void 0!==arguments[2]?arguments[2]:0,o=arguments.length>3&&void 0!==arguments[3]?arguments[3]:1,u=arguments.length>4&&void 0!==arguments[4]?arguments[4]:0,a=arguments.length>5&&void 0!==arguments[5]?arguments[5]:0;n(this,t),this.m=[r,e,i,o,u,a],this.i=null,this.w=null,this.s=null}return e(t,[{key:"determinant",get:function(){var t=this.m;return t[0]*t[3]-t[1]*t[2]}},{key:"isIdentity",get:function(){if(null===this.i){var t=this.m;this.i=1===t[0]&&0===t[1]&&0===t[2]&&1===t[3]&&0===t[4]&&0===t[5]}return this.i}},{key:"point",value:function(t,n){var r=this.m;return{x:r[0]*t+r[2]*n+r[4],y:r[1]*t+r[3]*n+r[5]}}},{key:"translateSelf",value:function(){var t=arguments.length>0&&void 0!==arguments[0]?arguments[0]:0,n=arguments.length>1&&void 0!==arguments[1]?arguments[1]:0;if(!t&&!n)return this;var r=this.m;return r[4]+=r[0]*t+r[2]*n,r[5]+=r[1]*t+r[3]*n,this.w=this.s=this.i=null,this}},{key:"rotateSelf",value:function(){var t=arguments.length>0&&void 0!==arguments[0]?arguments[0]:0;if(t%=360){var n=H(t*=X),r=Y(t),e=this.m,i=e[0],o=e[1];e[0]=i*r+e[2]*n,e[1]=o*r+e[3]*n,e[2]=e[2]*r-i*n,e[3]=e[3]*r-o*n,this.w=this.s=this.i=null}return this}},{key:"scaleSelf",value:function(){var t=arguments.length>0&&void 0!==arguments[0]?arguments[0]:1,n=arguments.length>1&&void 0!==arguments[1]?arguments[1]:1;if(1!==t||1!==n){var r=this.m;r[0]*=t,r[1]*=t,r[2]*=n,r[3]*=n,this.w=this.s=this.i=null}return this}},{key:"skewSelf",value:function(t,n){if(n%=360,(t%=360)||n){var r=this.m,e=r[0],i=r[1],o=r[2],u=r[3];t&&(t=K(t*X),r[2]+=e*t,r[3]+=i*t),n&&(n=K(n*X),r[0]+=o*n,r[1]+=u*n),this.w=this.s=this.i=null}return this}},{key:"resetSelf",value:function(){var t=arguments.length>0&&void 0!==arguments[0]?arguments[0]:1,n=arguments.length>1&&void 0!==arguments[1]?arguments[1]:0,r=arguments.length>2&&void 0!==arguments[2]?arguments[2]:0,e=arguments.length>3&&void 0!==arguments[3]?arguments[3]:1,i=arguments.length>4&&void 0!==arguments[4]?arguments[4]:0,o=arguments.length>5&&void 0!==arguments[5]?arguments[5]:0,u=this.m;return u[0]=t,u[1]=n,u[2]=r,u[3]=e,u[4]=i,u[5]=o,this.w=this.s=this.i=null,this}},{key:"recomposeSelf",value:function(){var t=arguments.length>0&&void 0!==arguments[0]?arguments[0]:null,n=arguments.length>1&&void 0!==arguments[1]?arguments[1]:null,r=arguments.length>2&&void 0!==arguments[2]?arguments[2]:null,e=arguments.length>3&&void 0!==arguments[3]?arguments[3]:null,i=arguments.length>4&&void 0!==arguments[4]?arguments[4]:null;return this.isIdentity||this.resetSelf(),t&&(t.x||t.y)&&this.translateSelf(t.x,t.y),n&&this.rotateSelf(n),r&&(r.x&&this.skewSelf(r.x,0),r.y&&this.skewSelf(0,r.y)),!e||1===e.x&&1===e.y||this.scaleSelf(e.x,e.y),i&&(i.x||i.y)&&this.translateSelf(i.x,i.y),this}},{key:"decompose",value:function(){var t=arguments.length>0&&void 0!==arguments[0]?arguments[0]:0,n=arguments.length>1&&void 0!==arguments[1]?arguments[1]:0,r=this.m,e=r[0]*r[0]+r[1]*r[1],i=[[r[0],r[1]],[r[2],r[3]]],o=nt(e);if(0===o)return{origin:{x:r[4],y:r[5]},translate:{x:t,y:n},scale:{x:0,y:0},skew:{x:0,y:0},rotate:0};i[0][0]/=o,i[0][1]/=o;var u=r[0]*r[3]-r[1]*r[2]<0;u&&(o=-o);var a=i[0][0]*i[1][0]+i[0][1]*i[1][1];i[1][0]-=i[0][0]*a,i[1][1]-=i[0][1]*a;var l=nt(i[1][0]*i[1][0]+i[1][1]*i[1][1]);if(0===l)return{origin:{x:r[4],y:r[5]},translate:{x:t,y:n},scale:{x:o,y:0},skew:{x:0,y:0},rotate:0};i[1][0]/=l,i[1][1]/=l,a/=l;var f=0;return i[1][1]<0?(f=Z(i[1][1])*tt,i[0][1]<0&&(f=360-f)):f=J(i[0][1])*tt,u&&(f=-f),a=W(a,nt(i[0][0]*i[0][0]+i[0][1]*i[0][1]))*tt,u&&(a=-a),{origin:{x:r[4],y:r[5]},translate:{x:t,y:n},scale:{x:o,y:l},skew:{x:a,y:0},rotate:f}}},{key:"toString",value:function(){return null===this.s&&(this.s="matrix("+this.m.map(it).join(" ")+")"),this.s}}]),t}(),et=/\.0+$/;function it(t){return Number.isInteger(t)?t:t.toFixed(14).replace(et,"")}function ot(t,n,r){return t+(n-t)*r}function ut(t,n,r){var e=arguments.length>3&&void 0!==arguments[3]&&arguments[3],i={x:ot(t.x,n.x,r),y:ot(t.y,n.y,r)};return e&&(i.a=at(t,n)),i}function at(t,n){return Math.atan2(n.y-t.y,n.x-t.x)}Object.freeze({M:2,L:2,Z:0,H:1,V:1,C:6,Q:4,T:2,S:4,A:7});var lt={},ft=null;function st(n){var r=function(){if(ft)return ft;if("object"!==("undefined"==typeof document?"undefined":t(document)))return{};var n=document.createElementNS("http://www.w3.org/2000/svg","svg");return n.style.position="absolute",n.style.opacity="0.01",n.style.zIndex="-9999",n.style.left="-9999px",n.style.width="1px",n.style.height="1px",ft={svg:n}}().svg;if(!r)return function(t){return null};var e=document.createElementNS(r.namespaceURI,"path");e.setAttributeNS(null,"d",n),e.setAttributeNS(null,"fill","none"),e.setAttributeNS(null,"stroke","none"),r.appendChild(e);var i=e.getTotalLength();return function(t){var n=e.getPointAtLength(i*t);return{x:n.x,y:n.y}}}function ct(t){return lt[t]?lt[t]:lt[t]=st(t)}function ht(t,n,r,e){if(!t||!e)return!1;var i=["M",t.x,t.y];if(n&&r&&(i.push("C"),i.push(n.x),i.push(n.y),i.push(r.x),i.push(r.y)),n?!r:r){var o=n||r;i.push("Q"),i.push(o.x),i.push(o.y)}return n||r||i.push("L"),i.push(e.x),i.push(e.y),i.join(" ")}function vt(t,n,r,e){var i=arguments.length>4&&void 0!==arguments[4]?arguments[4]:1,o=ht(t,n,r,e),u=ct(o);try{return u(i)}catch(t){return null}}function yt(t,n,r,e){var i=1-e;return i*i*t+2*i*e*n+e*e*r}function dt(t,n,r,e){return 2*(1-e)*(n-t)+2*e*(r-n)}function gt(t,n,r,e){var i=arguments.length>4&&void 0!==arguments[4]&&arguments[4],o=vt(t,n,null,r,e);return o||(o={x:yt(t.x,n.x,r.x,e),y:yt(t.y,n.y,r.y,e)}),i&&(o.a=pt(t,n,r,e)),o}function pt(t,n,r,e){return Math.atan2(dt(t.y,n.y,r.y,e),dt(t.x,n.x,r.x,e))}function mt(t,n,r,e,i){var o=i*i;return i*o*(e-t+3*(n-r))+3*o*(t+r-2*n)+3*i*(n-t)+t}function bt(t,n,r,e,i){var o=1-i;return 3*(o*o*(n-t)+2*o*i*(r-n)+i*i*(e-r))}function wt(t,n,r,e,i){var o=arguments.length>5&&void 0!==arguments[5]&&arguments[5],u=vt(t,n,r,e,i);return u||(u={x:mt(t.x,n.x,r.x,e.x,i),y:mt(t.y,n.y,r.y,e.y,i)}),o&&(u.a=xt(t,n,r,e,i)),u}function xt(t,n,r,e,i){return Math.atan2(bt(t.y,n.y,r.y,e.y,i),bt(t.x,n.x,r.x,e.x,i))}function kt(t,n,r){var e=arguments.length>3&&void 0!==arguments[3]&&arguments[3];if(_t(n)){if(St(r))return gt(n,r.start,r,t,e)}else if(_t(r)){if(n.end)return gt(n,n.end,r,t,e)}else{if(n.end)return r.start?wt(n,n.end,r.start,r,t,e):gt(n,n.end,r,t,e);if(r.start)return gt(n,r.start,r,t,e)}return ut(n,r,t,e)}function At(t,n,r){var e=kt(t,n,r,!0);return e.a=function(t){var n=arguments.length>1&&void 0!==arguments[1]&&arguments[1];return n?t+Math.PI:t}(e.a)/p,e}function _t(t){return!t.type||"corner"===t.type}function St(t){return null!=t.start&&!_t(t)}var Ot=new rt;var Mt={f:Q,i:b},jt={f:Q,i:function(t,n,r){var e=b(t,n,r);return e<=0?0:e>=1?1:e}};function Ft(t,n,r,e,i,o,u,a){return n=function(t,n,r){for(var e,i,o,u=t.length-1,a={},l=0;l<=u;l++)(e=t[l]).e&&(e.e=n(e.e)),e.v&&"g"===(i=e.v).t&&i.r&&(o=r.getElementById(i.r))&&(a[i.r]=o.querySelectorAll("stop"));return a}(t,e,a),function(e){var i,o=r(e,t,Pt);return o?"c"===o.t?V(o.v):"g"===o.t?(n[o.r]&&function(t,n){for(var r=0,e=t.length;r<e;r++)t[r].setAttribute("stop-color",V(n[r]))}(n[o.r],o.v),(i=o.r)?"url(#"+i+")":"none"):"none":"none"}}function Pt(t,n,r){if(0===t)return n;if(1===t)return r;if(n&&r){var e=n.t;if(e===r.t)switch(n.t){case"c":return{t:e,v:A(t,n.v,r.v)};case"g":if(n.r===r.r)return{t:e,v:_(t,n.v,r.v),r:n.r}}}return m(t,n,r)}var Bt={fill:Ft,"fill-opacity":jt,stroke:Ft,"stroke-opacity":jt,"stroke-width":Mt,"stroke-dashoffset":{f:Q,i:b},"stroke-dasharray":{f:function(t){var n=arguments.length>1&&void 0!==arguments[1]?arguments[1]:" ";return t&&t.length>0&&(t=t.map((function(t){return Math.floor(1e4*t)/1e4}))),U(t,n)},i:function(t,n,r){var e,i,o,u=n.length,a=r.length;if(u!==a)if(0===u)n=S(u=a,0);else if(0===a)a=u,r=S(u,0);else{var l=(o=(e=u)*(i=a)/function(t,n){for(var r;n;)r=n,n=t%n,t=r;return t||1}(e,i))<0?-o:o;n=O(n,Math.floor(l/u)),r=O(r,Math.floor(l/a)),u=a=l}for(var f=[],s=0;s<u;s++)f.push(g(w(t,n[s],r[s]),6));return f}},opacity:jt,transform:function(n,r,e,i){if(!(n=function(n,r){if(!n||"object"!==t(n))return null;var e=!1;for(var i in n)n.hasOwnProperty(i)&&(n[i]&&n[i].length?(n[i].forEach((function(t){t.e&&(t.e=r(t.e))})),e=!0):delete n[i]);return e?n:null}(n,i)))return null;var o=function(t,i,o){var u=arguments.length>3&&void 0!==arguments[3]?arguments[3]:null;return n[t]?e(i,n[t],o):r&&r[t]?r[t]:u};return r&&r.a&&n.o?function(t){var r=e(t,n.o,At);return Ot.recomposeSelf(r,o("r",t,b,0)+r.a,o("k",t,x),o("s",t,x),o("t",t,x)).toString()}:function(t){return Ot.recomposeSelf(o("o",t,kt,null),o("r",t,b,0),o("k",t,x),o("s",t,x),o("t",t,x)).toString()}},r:Mt,"#size":G,"#radius":$,_:function(t,n){if(Array.isArray(t))for(var r=0;r<t.length;r++)this[t[r]]=n;else this[t]=n}};return function(t){!function(t,n){if("function"!=typeof n&&null!==n)throw new TypeError("Super expression must either be null or a function");t.prototype=Object.create(n&&n.prototype,{constructor:{value:t,writable:!0,configurable:!0}}),n&&o(t,n)}(u,t);var r=a(u);function u(){return n(this,u),r.apply(this,arguments)}return e(u,null,[{key:"build",value:function(t){var n=l(i(u),"build",this).call(this,t,Bt);n.el,n.options;var r=n.player;return function(t,n,r){t.play()}(r),r}}]),u}(L)}));
__SVGATOR_PLAYER__.build({"root":"eX5Bv3O2xdR1","animations":[{"duration":2200,"direction":1,"iterations":0,"fill":1,"alternate":false,"speed":1,"elements":{"eX5Bv3O2xdR3":{"transform":{"data":{"t":{"x":-529.99499512,"y":-14.808002290000246}},"keys":{"o":[{"t":500,"v":{"x":521.8241119399997,"y":15.57066708500021,"type":"corner"}},{"t":1600,"v":{"x":521.8241424599996,"y":405.9679307100002,"type":"corner"}}]}}},"eX5Bv3O2xdR13":{"transform":{"data":{"o":{"x":296.4064483642578,"y":300.2622604370117,"type":"corner"},"t":{"x":-296.4064483642578,"y":-300.2622604370117}},"keys":{"r":[{"t":0,"v":-10,"e":[0.42,0,1,1]},{"t":200,"v":0},{"t":1800,"v":0},{"t":2100,"v":-10}]}}}}}],"options":{"start":"load","hover":"freeze","click":"freeze","scroll":25,"font":"embed","exportedIds":"unique","svgFormat":"animated","title":"flowing-beer"},"animationSettings":{"duration":2200,"direction":1,"iterations":0,"fill":1,"alternate":false,"speed":1}})]]></script></svg>