<svg id="eR4StPqar9L1" xmlns="http://www.w3.org/2000/svg" xmlns:xlink="http://www.w3.org/1999/xlink" viewBox="0 -61 512.001000 512" shape-rendering="geometricPrecision" text-rendering="geometricPrecision"><g id="eR4StPqar9L2" transform="matrix(0.98768834059514 0.15643446504023 -0.15643446504023 0.98768834059514 31.47491113030571 -33.02041487456836)"><path id="eR4StPqar9L3" d="M501.378906,160.929688L458.886719,160.929688C454.488281,160.929688,450.921875,164.496094,450.921875,168.898438C450.921875,173.296875,454.488281,176.863281,458.886719,176.863281L472.164062,176.863281L472.164062,199.703125C472.164062,204.101562,475.734375,207.667969,480.132812,207.667969C484.531250,207.667969,488.101562,204.101562,488.101562,199.703125L488.101562,176.863281L501.378906,176.863281C505.777344,176.863281,509.343750,173.296875,509.343750,168.898438C509.343750,164.496094,505.777344,160.929688,501.378906,160.929688ZM501.378906,160.929688" fill="rgb(200,210,220)" stroke="none" stroke-width="1"/><path id="eR4StPqar9L4" d="M220.414062,303.800781L377.628906,303.800781L386.796875,378.996094C387.570312,385.328125,382.628906,390.906250,376.253906,390.906250L352.582031,390.906250C349.589844,390.906250,346.734375,389.640625,344.722656,387.425781L329.800781,371.011719C327.785156,368.796875,324.933594,367.535156,321.941406,367.535156L118.890625,367.535156C115.898438,367.535156,113.042969,368.796875,111.031250,371.011719L96.105469,387.425781C94.093750,389.640625,91.238281,390.906250,88.246094,390.906250L64.578125,390.906250C58.199219,390.906250,53.261719,385.324219,54.031250,378.996094L63.203125,303.800781ZM220.414062,303.800781" fill="rgb(73,89,89)" stroke="none" stroke-width="1"/><path id="eR4StPqar9L5" d="M436.582031,199.703125L436.582031,233.695312L470.574219,233.695312C475.265625,233.695312,479.070312,237.500000,479.070312,242.191406L479.070312,248.566406C479.070312,253.257812,482.875000,257.062500,487.570312,257.062500L503.503906,257.062500C508.195312,257.062500,512,253.257812,512,248.566406L512,220.945312C512,209.214844,502.488281,199.703125,490.757812,199.703125ZM436.582031,199.703125" fill="rgb(255,224,70)" stroke="none" stroke-width="1"/><path id="eR4StPqar9L6" d="M490.753906,199.703125L479.003906,199.703125C490.738281,199.703125,500.250000,209.210938,500.250000,220.945312L500.250000,248.566406C500.250000,253.257812,496.445312,257.062500,491.753906,257.062500L503.503906,257.062500C508.195312,257.062500,512,253.257812,512,248.566406L512,220.945312C512,209.210938,502.488281,199.703125,490.753906,199.703125ZM490.753906,199.703125" fill="rgb(238,199,7)" stroke="none" stroke-width="1"/><path id="eR4StPqar9L7" d="M386.796875,378.996094L377.628906,303.800781L63.203125,303.800781L60.906250,322.625000C125.597656,344.945312,204.218750,346.289062,222.007812,346.289062C237.121094,346.289062,297.078125,345.273438,354.417969,330.433594C360.636719,328.824219,366.851562,333.042969,367.628906,339.421875L373.906250,390.906250L376.253906,390.906250C382.628906,390.906250,387.570312,385.328125,386.796875,378.996094ZM386.796875,378.996094" fill="rgb(63,74,74)" stroke="none" stroke-width="1"/><path id="eR4StPqar9L8" d="M0,164.648438C0,216.558594,6.343750,248.652344,11.277344,265.765625C14.312500,276.285156,21.343750,285.183594,30.812500,290.675781C91.156250,325.660156,194.503906,329.292969,222.007812,329.292969C249.519531,329.292969,350.191406,325.660156,410.117188,290.648438C419.531250,285.148438,426.519531,276.281250,429.542969,265.800781C434.480469,248.695312,440.832031,216.593750,440.832031,164.648438C440.832031,112.699219,434.480469,80.597656,429.542969,63.492188C426.519531,53.015625,419.531250,44.148438,410.117188,38.648438C350.191406,3.636719,249.519531,0,222.007812,0C194.503906,0,91.156250,3.632812,30.812500,38.617188C21.343750,44.109375,14.312500,53.007812,11.277344,63.531250C6.343750,80.644531,-0,112.738281,-0,164.648438ZM0,164.648438" fill="rgb(167,117,84)" stroke="none" stroke-width="1"/><g id="eR4StPqar9L9"><path id="eR4StPqar9L10" d="M410.007812,38.593750C409.441406,38.265625,408.871094,37.937500,408.300781,37.613281C413.039062,55.503906,418.523438,86.632812,418.523438,134.906250C418.523438,185.062500,412.601562,216.718750,407.746094,234.238281C404.546875,245.800781,396.929688,255.703125,386.511719,261.656250C326.441406,295.968750,227.015625,299.550781,199.699219,299.550781C172.453125,299.550781,70.773438,295.980469,10.210938,261.894531C10.566406,263.238281,10.914062,264.507812,11.261719,265.707031C14.296875,276.246094,21.316406,285.171875,30.808594,290.671875C91.148438,325.660156,194.503906,329.292969,222.007812,329.292969C249.519531,329.292969,350.195312,325.660156,410.121094,290.644531C419.531250,285.148438,426.515625,276.281250,429.539062,265.808594C434.476562,248.707031,440.828125,216.601562,440.828125,164.648438C440.828125,113.089844,434.574219,81.082031,429.652344,63.882812C426.605469,53.226562,419.585938,44.175781,410.007812,38.593750ZM410.007812,38.593750" fill="rgb(145,84,49)" stroke="none" stroke-width="1"/><path id="eR4StPqar9L11" d="M354.636719,202.605469C265.957031,217.507812,175.992188,217.570312,87.242188,202.781250C82.910156,202.066406,78.800781,204.992188,78.074219,209.332031C77.351562,213.671875,80.285156,217.777344,84.625000,218.500000C129.695312,226.007812,175.058594,229.761719,220.429688,229.761719C266.152344,229.761719,311.890625,225.945312,357.277344,218.316406C361.617188,217.589844,364.542969,213.480469,363.812500,209.140625C363.085938,204.800781,358.972656,201.878906,354.636719,202.605469ZM354.636719,202.605469" fill="rgb(145,84,49)" stroke="none" stroke-width="1"/><path id="eR4StPqar9L12" d="M89.199219,47.199219C84.875000,48.019531,82.035156,52.187500,82.855469,56.507812C83.675781,60.832031,87.847656,63.671875,92.167969,62.851562C177.621094,46.632812,264.277344,46.703125,349.730469,63.062500C350.238281,63.156250,350.742188,63.203125,351.238281,63.203125C354.984375,63.203125,358.324219,60.550781,359.054688,56.734375C359.882812,52.414062,357.050781,48.238281,352.726562,47.410156C265.292969,30.675781,176.628906,30.601562,89.199219,47.199219ZM89.199219,47.199219" fill="rgb(145,84,49)" stroke="none" stroke-width="1"/><path id="eR4StPqar9L13" d="M6.539062,83.769531C7.062500,83.878906,7.593750,83.953125,8.136719,83.953125C8.941406,83.953125,9.761719,83.828125,10.566406,83.570312C22.667969,79.691406,35.019531,76.117188,47.285156,72.933594C51.542969,71.828125,54.101562,67.480469,52.996094,63.222656C51.890625,58.960938,47.539062,56.402344,43.281250,57.507812C32.285156,60.363281,21.230469,63.542969,10.328125,66.949219C9.082031,71.613281,7.781250,77.199219,6.539062,83.769531ZM6.539062,83.769531" fill="rgb(145,84,49)" stroke="none" stroke-width="1"/><path id="eR4StPqar9L14" d="M357.148438,108.832031C266.765625,93.656250,175.074219,93.601562,84.625000,108.667969C80.285156,109.390625,77.355469,113.496094,78.078125,117.835938C78.800781,122.175781,82.906250,125.113281,87.246094,124.386719C175.996094,109.601562,265.960938,109.660156,354.636719,124.566406C355.074219,124.636719,355.523438,124.675781,355.968750,124.675781C360.367188,124.675781,363.929688,121.109375,363.929688,116.707031C363.929688,112.714844,360.984375,109.406250,357.148438,108.832031ZM357.148438,108.832031" fill="rgb(145,84,49)" stroke="none" stroke-width="1"/><path id="eR4StPqar9L15" d="M398.675781,57.808594C394.414062,56.695312,390.062500,59.250000,388.953125,63.507812C387.839844,67.761719,390.390625,72.117188,394.648438,73.226562C406.484375,76.316406,418.468750,79.800781,430.273438,83.582031C431.082031,83.839844,431.898438,83.960938,432.703125,83.960938C433.242188,83.960938,433.769531,83.886719,434.289062,83.781250C433.050781,77.210938,431.746094,71.625000,430.503906,66.957031C419.925781,63.652344,409.242188,60.570312,398.675781,57.808594ZM398.675781,57.808594" fill="rgb(145,84,49)" stroke="none" stroke-width="1"/><path id="eR4StPqar9L16" d="M395.941406,124.414062C394.953125,128.703125,397.628906,132.980469,401.914062,133.968750C413.843750,136.718750,425.968750,139.820312,437.960938,143.191406C438.683594,143.394531,439.410156,143.492188,440.121094,143.492188C440.234375,143.492188,440.343750,143.468750,440.453125,143.464844C440.250000,137.726562,439.964844,132.281250,439.609375,127.121094C428.246094,123.968750,416.785156,121.042969,405.492188,118.441406C401.207031,117.449219,396.929688,120.125000,395.941406,124.414062ZM395.941406,124.414062" fill="rgb(145,84,49)" stroke="none" stroke-width="1"/><path id="eR4StPqar9L17" d="M438.066406,183.949219C425.960938,187.351562,413.800781,190.464844,401.929688,193.191406C397.644531,194.175781,394.964844,198.449219,395.949219,202.738281C396.800781,206.425781,400.078125,208.925781,403.707031,208.925781C404.300781,208.925781,404.898438,208.859375,405.500000,208.718750C416.761719,206.132812,428.273438,203.199219,439.757812,200.007812C440.085938,194.839844,440.347656,189.390625,440.531250,183.660156C439.718750,183.625000,438.890625,183.714844,438.066406,183.949219ZM438.066406,183.949219" fill="rgb(145,84,49)" stroke="none" stroke-width="1"/><path id="eR4StPqar9L18" d="M359.054688,270.433594C358.226562,266.113281,354.050781,263.285156,349.730469,264.109375C264.285156,280.468750,177.632812,280.535156,92.179688,264.320312C87.855469,263.496094,83.687500,266.339844,82.867188,270.660156C82.046875,274.984375,84.886719,279.152344,89.207031,279.972656C132.738281,288.234375,176.566406,292.367188,220.402344,292.367188C264.613281,292.367188,308.828125,288.164062,352.726562,279.757812C357.050781,278.929688,359.882812,274.757812,359.054688,270.433594ZM359.054688,270.433594" fill="rgb(145,84,49)" stroke="none" stroke-width="1"/><path id="eR4StPqar9L19" d="M434.718750,243.199219C433.441406,242.949219,432.085938,243.007812,430.757812,243.429688C418.710938,247.296875,406.582031,250.824219,394.707031,253.921875C390.449219,255.031250,387.894531,259.382812,389.007812,263.640625C389.941406,267.222656,393.171875,269.597656,396.710938,269.597656C397.375000,269.597656,398.050781,269.515625,398.726562,269.339844C409.398438,266.558594,420.269531,263.417969,431.105469,260.023438C432.308594,255.281250,433.546875,249.699219,434.718750,243.199219ZM434.718750,243.199219" fill="rgb(145,84,49)" stroke="none" stroke-width="1"/><path id="eR4StPqar9L20" d="M0.718750,143.488281C1.433594,143.488281,2.160156,143.390625,2.882812,143.187500C15.101562,139.746094,27.582031,136.562500,39.976562,133.726562C44.265625,132.746094,46.945312,128.472656,45.964844,124.179688C44.980469,119.890625,40.707031,117.210938,36.421875,118.195312C24.664062,120.882812,12.843750,123.890625,1.218750,127.121094C0.867188,132.281250,0.578125,137.722656,0.375000,143.460938C0.488281,143.464844,0.601562,143.488281,0.718750,143.488281ZM0.718750,143.488281" fill="rgb(145,84,49)" stroke="none" stroke-width="1"/><path id="eR4StPqar9L21" d="M43.269531,269.660156C43.941406,269.832031,44.613281,269.917969,45.277344,269.917969C48.816406,269.917969,52.050781,267.539062,52.984375,263.953125C54.089844,259.695312,51.535156,255.343750,47.277344,254.238281C34.730469,250.972656,22.218750,247.343750,10.085938,243.441406C8.757812,243.015625,7.394531,242.957031,6.113281,243.210938C7.285156,249.707031,8.523438,255.292969,9.726562,260.027344C20.726562,263.480469,31.976562,266.722656,43.269531,269.660156ZM43.269531,269.660156" fill="rgb(145,84,49)" stroke="none" stroke-width="1"/><path id="eR4StPqar9L22" d="M36.417969,208.976562C37.019531,209.113281,37.617188,209.179688,38.203125,209.179688C41.835938,209.179688,45.117188,206.679688,45.964844,202.988281C46.945312,198.699219,44.265625,194.425781,39.976562,193.445312C27.527344,190.589844,15.007812,187.398438,2.765625,183.949219C1.937500,183.714844,1.109375,183.625000,0.296875,183.656250C0.480469,189.386719,0.742188,194.839844,1.070312,200.007812C12.730469,203.250000,24.601562,206.269531,36.417969,208.976562ZM36.417969,208.976562" fill="rgb(145,84,49)" stroke="none" stroke-width="1"/></g><path id="eR4StPqar9L23" d="M356.914062,163.585938C356.914062,235.285156,350.683594,284.343750,344.519531,315.355469C358.734375,311.925781,372.777344,307.675781,385.855469,302.402344C393.066406,282.917969,404.714844,239.679688,404.714844,163.585938C404.714844,90.582031,393.996094,47.824219,386.757812,27.265625C373.558594,21.875000,359.351562,17.535156,344.957031,14.046875C350.976562,45.160156,356.914062,93.582031,356.914062,163.585938ZM356.914062,163.585938" fill="rgb(200,210,220)" stroke="none" stroke-width="1"/><path id="eR4StPqar9L24" d="M356.914062,163.585938C356.914062,235.285156,350.683594,284.343750,344.519531,315.355469C358.734375,311.925781,372.777344,307.675781,385.855469,302.402344C393.066406,282.917969,404.714844,239.679688,404.714844,163.585938C404.714844,90.582031,393.996094,47.824219,386.757812,27.265625C373.558594,21.875000,359.351562,17.535156,344.957031,14.046875C350.976562,45.160156,356.914062,93.582031,356.914062,163.585938ZM356.914062,163.585938" fill="rgb(200,210,220)" stroke="none" stroke-width="1"/><path id="eR4StPqar9L25" d="M356.914062,163.585938C356.914062,235.285156,350.683594,284.343750,344.519531,315.355469C358.734375,311.925781,372.777344,307.675781,385.855469,302.402344C393.066406,282.917969,404.714844,239.679688,404.714844,163.585938C404.714844,90.582031,393.996094,47.824219,386.757812,27.265625C373.558594,21.875000,359.351562,17.535156,344.957031,14.046875C350.976562,45.160156,356.914062,93.582031,356.914062,163.585938ZM356.914062,163.585938" fill="rgb(200,210,220)" stroke="none" stroke-width="1"/><path id="eR4StPqar9L26" d="M386.542969,300.507812C390.035156,290.699219,394.390625,275.636719,397.960938,254.390625C397.960938,254.382812,397.964844,254.375000,397.964844,254.363281C384.476562,263.933594,368.109375,271.500000,350.558594,277.468750C348.699219,292.281250,346.605469,304.855469,344.519531,315.355469C358.734375,311.925781,372.777344,307.675781,385.855469,302.402344C386.082031,301.792969,386.312500,301.160156,386.542969,300.507812ZM386.542969,300.507812" fill="rgb(185,195,205)" stroke="none" stroke-width="1"/><path id="eR4StPqar9L27" d="M84.980469,163.585938C84.980469,93.566406,90.917969,45.140625,96.941406,14.027344C82.574219,17.441406,68.410156,21.671875,55.257812,26.906250C48.019531,47.332031,37.179688,90.167969,37.179688,163.585938C37.179688,240.117188,48.960938,283.421875,56.160156,302.742188C69.191406,307.867188,83.187500,312.019531,97.378906,315.375000C91.210938,284.363281,84.980469,235.296875,84.980469,163.585938ZM84.980469,163.585938" fill="rgb(200,210,220)" stroke="none" stroke-width="1"/><path id="eR4StPqar9L28" d="M56.160156,302.742188C69.191406,307.867188,83.187500,312.019531,97.378906,315.375000C95.878906,307.828125,94.371094,299.199219,92.953125,289.445312C78.097656,286.597656,63.089844,282.964844,48.816406,278.339844C51.382812,288.835938,53.980469,296.894531,56.160156,302.742188ZM56.160156,302.742188" fill="rgb(185,195,205)" stroke="none" stroke-width="1"/></g><script><![CDATA[!function(t,n){"object"==typeof exports&&"undefined"!=typeof module?module.exports=n():"function"==typeof define&&define.amd?define(n):(t="undefined"!=typeof globalThis?globalThis:t||self).__SVGATOR_PLAYER__=n()}(this,(function(){"use strict";function t(n){return(t="function"==typeof Symbol&&"symbol"==typeof Symbol.iterator?function(t){return typeof t}:function(t){return t&&"function"==typeof Symbol&&t.constructor===Symbol&&t!==Symbol.prototype?"symbol":typeof t})(n)}function n(t,n){if(!(t instanceof n))throw new TypeError("Cannot call a class as a function")}function r(t,n){for(var r=0;r<n.length;r++){var e=n[r];e.enumerable=e.enumerable||!1,e.configurable=!0,"value"in e&&(e.writable=!0),Object.defineProperty(t,e.key,e)}}function e(t,n,e){return n&&r(t.prototype,n),e&&r(t,e),t}function i(t){return(i=Object.setPrototypeOf?Object.getPrototypeOf:function(t){return t.__proto__||Object.getPrototypeOf(t)})(t)}function o(t,n){return(o=Object.setPrototypeOf||function(t,n){return t.__proto__=n,t})(t,n)}function u(t,n){return!n||"object"!=typeof n&&"function"!=typeof n?function(t){if(void 0===t)throw new ReferenceError("this hasn't been initialised - super() hasn't been called");return t}(t):n}function a(t){var n=function(){if("undefined"==typeof Reflect||!Reflect.construct)return!1;if(Reflect.construct.sham)return!1;if("function"==typeof Proxy)return!0;try{return Boolean.prototype.valueOf.call(Reflect.construct(Boolean,[],(function(){}))),!0}catch(t){return!1}}();return function(){var r,e=i(t);if(n){var o=i(this).constructor;r=Reflect.construct(e,arguments,o)}else r=e.apply(this,arguments);return u(this,r)}}function l(t,n,r){return(l="undefined"!=typeof Reflect&&Reflect.get?Reflect.get:function(t,n,r){var e=function(t,n){for(;!Object.prototype.hasOwnProperty.call(t,n)&&null!==(t=i(t)););return t}(t,n);if(e){var o=Object.getOwnPropertyDescriptor(e,n);return o.get?o.get.call(r):o.value}})(t,n,r||t)}var f=Math.abs;function s(t){return t}function c(t,n,r){var e=1-r;return 3*r*e*(t*e+n*r)+r*r*r}function h(){var t=arguments.length>0&&void 0!==arguments[0]?arguments[0]:0,n=arguments.length>1&&void 0!==arguments[1]?arguments[1]:0,r=arguments.length>2&&void 0!==arguments[2]?arguments[2]:1,e=arguments.length>3&&void 0!==arguments[3]?arguments[3]:1;return t<0||t>1||r<0||r>1?null:f(t-n)<=1e-5&&f(r-e)<=1e-5?s:function(i){if(i<=0)return t>0?i*n/t:0===n&&r>0?i*e/r:0;if(i>=1)return r<1?1+(i-1)*(e-1)/(r-1):1===r&&t<1?1+(i-1)*(n-1)/(t-1):1;for(var o,u=0,a=1;u<a;){var l=c(t,r,o=(u+a)/2);if(f(i-l)<1e-5)break;l<i?u=o:a=o}return c(n,e,o)}}function v(){return 1}function y(t){return 1===t?1:0}function d(){var t=arguments.length>0&&void 0!==arguments[0]?arguments[0]:1,n=arguments.length>1&&void 0!==arguments[1]?arguments[1]:0;if(1===t){if(0===n)return y;if(1===n)return v}var r=1/t;return function(t){return t>=1?1:(t+=n*r)-t%r}}function g(t){var n=arguments.length>1&&void 0!==arguments[1]?arguments[1]:2;if(Number.isInteger(t))return t;var r=Math.pow(10,n);return Math.round(t*r)/r}var p=Math.PI/180;function m(t,n,r){return t>=.5?r:n}function b(t,n,r){return 0===t||n===r?n:t*(r-n)+n}function w(t,n,r){var e=b(t,n,r);return e<=0?0:e}function x(t,n,r){return 0===t?n:1===t?r:{x:b(t,n.x,r.x),y:b(t,n.y,r.y)}}function k(t,n,r){var e=function(t,n,r){return Math.round(b(t,n,r))}(t,n,r);return e<=0?0:e>=255?255:e}function A(t,n,r){return 0===t?n:1===t?r:{r:k(t,n.r,r.r),g:k(t,n.g,r.g),b:k(t,n.b,r.b),a:b(t,null==n.a?1:n.a,null==r.a?1:r.a)}}function _(t,n,r){if(0===t)return n;if(1===t)return r;var e=n.length;if(e!==r.length)return m(t,n,r);for(var i=[],o=0;o<e;o++)i.push(A(t,n[o],r[o]));return i}function S(t,n){for(var r=[],e=0;e<t;e++)r.push(n);return r}function O(t,n){if(--n<=0)return t;var r=(t=Object.assign([],t)).length;do{for(var e=0;e<r;e++)t.push(t[e])}while(--n>0);return t}var M,j=function(){function t(r){n(this,t),this.list=r,this.length=r.length}return e(t,[{key:"setAttribute",value:function(t,n){for(var r=this.list,e=0;e<this.length;e++)r[e].setAttribute(t,n)}},{key:"removeAttribute",value:function(t){for(var n=this.list,r=0;r<this.length;r++)n[r].removeAttribute(t)}},{key:"style",value:function(t,n){for(var r=this.list,e=0;e<this.length;e++)r[e].style[t]=n}}]),t}(),F=/-./g,P=function(t,n){return n.toUpperCase()};function B(t){return"function"==typeof t?t:m}function I(t){return t?"function"==typeof t?t:Array.isArray(t)?function(t){var n=arguments.length>1&&void 0!==arguments[1]?arguments[1]:s;if(!Array.isArray(t))return n;switch(t.length){case 1:return d(t[0])||n;case 2:return d(t[0],t[1])||n;case 4:return h(t[0],t[1],t[2],t[3])||n}return n}(t,null):function(t,n){var r=arguments.length>2&&void 0!==arguments[2]?arguments[2]:s;switch(t){case"linear":return s;case"steps":return d(n.steps||1,n.jump||0)||r;case"bezier":case"cubic-bezier":return h(n.x1||0,n.y1||0,n.x2||0,n.y2||0)||r}return r}(t.type,t.value,null):null}function R(t,n,r){var e=arguments.length>3&&void 0!==arguments[3]&&arguments[3],i=n.length-1;if(t<=n[0].t)return e?[0,0,n[0].v]:n[0].v;if(t>=n[i].t)return e?[i,1,n[i].v]:n[i].v;var o,u=n[0],a=null;for(o=1;o<=i;o++){if(!(t>n[o].t)){a=n[o];break}u=n[o]}return null==a?e?[i,1,n[i].v]:n[i].v:u.t===a.t?e?[o,1,a.v]:a.v:(t=(t-u.t)/(a.t-u.t),u.e&&(t=u.e(t)),e?[o,t,r(t,u.v,a.v)]:r(t,u.v,a.v))}function q(t,n){var r=arguments.length>2&&void 0!==arguments[2]?arguments[2]:null;return t&&t.length?"function"!=typeof n?null:("function"!=typeof r&&(r=null),function(e){var i=R(e,t,n);return null!=i&&r&&(i=r(i)),i}):null}function E(t,n){return t.t-n.t}function T(n,r,e,i,o){var u,a="@"===e[0],l="#"===e[0],f=M[e],s=m;switch(a?(u=e.substr(1),e=u.replace(F,P)):l&&(e=e.substr(1)),t(f)){case"function":if(s=f(i,o,R,I,e,a,r,n),l)return s;break;case"string":s=q(i,B(f));break;case"object":if((s=q(i,B(f.i),f.f))&&"function"==typeof f.u)return f.u(r,s,e,a,n)}return s?function(t,n,r){var e=arguments.length>3&&void 0!==arguments[3]&&arguments[3];if(e)return t instanceof j?function(e){return t.style(n,r(e))}:function(e){return t.style[n]=r(e)};if(Array.isArray(n)){var i=n.length;return function(e){var o=r(e);if(null==o)for(var u=0;u<i;u++)t[u].removeAttribute(n);else for(var a=0;a<i;a++)t[a].setAttribute(n,o)}}return function(e){var i=r(e);null==i?t.removeAttribute(n):t.setAttribute(n,i)}}(r,e,s,a):null}function N(n,r,e,i){if(!i||"object"!==t(i))return null;var o=null,u=null;return Array.isArray(i)?u=function(t){if(!t||!t.length)return null;for(var n=0;n<t.length;n++)t[n].e&&(t[n].e=I(t[n].e));return t.sort(E)}(i):(u=i.keys,o=i.data||null),u?T(n,r,e,u,o):null}function C(t,n,r){if(!r)return null;var e=[];for(var i in r)if(r.hasOwnProperty(i)){var o=N(t,n,i,r[i]);o&&e.push(o)}return e.length?e:null}function z(t,n){if(!n.duration||n.duration<0)return null;var r=function(t,n){if(!n)return null;var r=[];if(Array.isArray(n))for(var e=n.length,i=0;i<e;i++){var o=n[i];if(2===o.length){var u=null;if("string"==typeof o[0])u=t.getElementById(o[0]);else if(Array.isArray(o[0])){u=[];for(var a=0;a<o[0].length;a++)if("string"==typeof o[0][a]){var l=t.getElementById(o[0][a]);l&&u.push(l)}u=u.length?1===u.length?u[0]:new j(u):null}if(u){var f=C(t,u,o[1]);f&&(r=r.concat(f))}}}else for(var s in n)if(n.hasOwnProperty(s)){var c=t.getElementById(s);if(c){var h=C(t,c,n[s]);h&&(r=r.concat(h))}}return r.length?r:null}(t,n.elements);return r?function(t,n){var r=arguments.length>2&&void 0!==arguments[2]?arguments[2]:1/0,e=arguments.length>3&&void 0!==arguments[3]?arguments[3]:1,i=arguments.length>4&&void 0!==arguments[4]&&arguments[4],o=arguments.length>5&&void 0!==arguments[5]?arguments[5]:1,u=t.length,a=e>0?n:0;i&&r%2==0&&(a=n-a);var l=null;return function(f,s){var c=f%n,h=1+(f-c)/n;s*=e,i&&h%2==0&&(s=-s);var v=!1;if(h>r)c=a,v=!0,-1===o&&(c=e>0?0:n);else if(s<0&&(c=n-c),c===l)return!1;l=c;for(var y=0;y<u;y++)t[y](c);return v}}(r,n.duration,n.iterations||1/0,n.direction||1,!!n.alternate,n.fill||1):null}var L=function(){function t(r,e){var i=arguments.length>2&&void 0!==arguments[2]?arguments[2]:{};n(this,t),this._id=0,this._running=!1,this._rollingBack=!1,this._animations=r,this.duration=e.duration,this.alternate=e.alternate,this.fill=e.fill,this.iterations=e.iterations,this.direction=i.direction||1,this.speed=i.speed||1,this.fps=i.fps||100,this.offset=i.offset||0,this.rollbackStartOffset=0}return e(t,[{key:"_rollback",value:function(){var t=this,n=1/0,r=null;this.rollbackStartOffset=this.offset,this._rollingBack||(this._rollingBack=!0,this._running=!0);this._id=window.requestAnimationFrame((function e(i){if(t._rollingBack){null==r&&(r=i);var o=i-r,u=t.rollbackStartOffset-o,a=Math.round(u*t.speed);if(a>t.duration&&n!=1/0){var l=!!t.alternate&&a/t.duration%2>1,f=a%t.duration;a=(f+=l?t.duration:0)||t.duration}var s=t.fps?1e3/t.fps:0,c=Math.max(0,a);if(c<n-s){t.offset=c,n=c;for(var h=t._animations,v=h.length,y=0;y<v;y++)h[y](c,t.direction)}var d=!1;if(t.iterations>0&&-1===t.fill){var g=t.iterations*t.duration,p=g==a;a=p?0:a,t.offset=p?0:t.offset,d=a>g}a>0&&t.offset>=a&&!d?t._id=window.requestAnimationFrame(e):t.stop()}}))}},{key:"_start",value:function(){var t=this,n=arguments.length>0&&void 0!==arguments[0]?arguments[0]:0,r=-1/0,e=null,i={},o=function o(u){t._running=!0,null==e&&(e=u);var a=Math.round((u-e+n)*t.speed),l=t.fps?1e3/t.fps:0;if(a>r+l&&!t._rollingBack){t.offset=a,r=a;for(var f=t._animations,s=f.length,c=0,h=0;h<s;h++)i[h]?c++:(i[h]=f[h](a,t.direction),i[h]&&c++);if(c===s)return void t._stop()}t._id=window.requestAnimationFrame(o)};this._id=window.requestAnimationFrame(o)}},{key:"_stop",value:function(){this._id&&window.cancelAnimationFrame(this._id),this._running=!1,this._rollingBack=!1}},{key:"play",value:function(){!this._rollingBack&&this._running||(this._rollingBack=!1,this.rollbackStartOffset>this.duration&&(this.offset=this.rollbackStartOffset-(this.rollbackStartOffset-this.offset)%this.duration,this.rollbackStartOffset=0),this._start(this.offset))}},{key:"stop",value:function(){this._stop(),this.offset=0,this.rollbackStartOffset=0;var t=this.direction,n=this._animations;window.requestAnimationFrame((function(){for(var r=0;r<n.length;r++)n[r](0,t)}))}},{key:"reachedToEnd",value:function(){return this.iterations>0&&this.offset>=this.iterations*this.duration}},{key:"restart",value:function(){this._stop(),this.offset=0,this._start()}},{key:"pause",value:function(){this._stop()}},{key:"reverse",value:function(){this.direction=-this.direction}}],[{key:"build",value:function(n,r){return(n=function(t,n){if(M=n,!t||!t.root||!Array.isArray(t.animations))return null;for(var r=document.getElementsByTagName("svg"),e=!1,i=0;i<r.length;i++)if(r[i].id===t.root&&!r[i].svgatorAnimation){(e=r[i]).svgatorAnimation=!0;break}if(!e)return null;var o=t.animations.map((function(t){return z(e,t)})).filter((function(t){return!!t}));return o.length?{element:e,animations:o,animationSettings:t.animationSettings,options:t.options||void 0}:null}(n,r))?{el:n.element,options:n.options||{},player:new t(n.animations,n.animationSettings,n.options)}:null}}]),t}();!function(){for(var t=0,n=["ms","moz","webkit","o"],r=0;r<n.length&&!window.requestAnimationFrame;++r)window.requestAnimationFrame=window[n[r]+"RequestAnimationFrame"],window.cancelAnimationFrame=window[n[r]+"CancelAnimationFrame"]||window[n[r]+"CancelRequestAnimationFrame"];window.requestAnimationFrame||(window.requestAnimationFrame=function(n){var r=Date.now(),e=Math.max(0,16-(r-t)),i=window.setTimeout((function(){n(r+e)}),e);return t=r+e,i},window.cancelAnimationFrame=window.clearTimeout)}();var D=/\.0+$/g;function Q(t){return Number.isInteger(t)?t+"":t.toFixed(6).replace(D,"")}function U(t){var n=arguments.length>1&&void 0!==arguments[1]?arguments[1]:" ";return t&&t.length?t.map(Q).join(n):""}function V(t){return t?null==t.a||t.a>=1?"rgb("+t.r+","+t.g+","+t.b+")":"rgba("+t.r+","+t.g+","+t.b+","+t.a+")":"transparent"}var $={f:null,i:function(t,n,r){return 0===t?n:1===t?r:{x:w(t,n.x,r.x),y:w(t,n.y,r.y)}},u:function(t,n){return function(r){var e=n(r);t.setAttribute("rx",Q(e.x)),t.setAttribute("ry",Q(e.y))}}},G={f:null,i:function(t,n,r){return 0===t?n:1===t?r:{width:w(t,n.width,r.width),height:w(t,n.height,r.height)}},u:function(t,n){return function(r){var e=n(r);t.setAttribute("width",Q(e.width)),t.setAttribute("height",Q(e.height))}}},H=Math.sin,Y=Math.cos,Z=Math.acos,J=Math.asin,K=Math.tan,W=Math.atan2,X=Math.PI/180,tt=180/Math.PI,nt=Math.sqrt,rt=function(){function t(){var r=arguments.length>0&&void 0!==arguments[0]?arguments[0]:1,e=arguments.length>1&&void 0!==arguments[1]?arguments[1]:0,i=arguments.length>2&&void 0!==arguments[2]?arguments[2]:0,o=arguments.length>3&&void 0!==arguments[3]?arguments[3]:1,u=arguments.length>4&&void 0!==arguments[4]?arguments[4]:0,a=arguments.length>5&&void 0!==arguments[5]?arguments[5]:0;n(this,t),this.m=[r,e,i,o,u,a],this.i=null,this.w=null,this.s=null}return e(t,[{key:"determinant",get:function(){var t=this.m;return t[0]*t[3]-t[1]*t[2]}},{key:"isIdentity",get:function(){if(null===this.i){var t=this.m;this.i=1===t[0]&&0===t[1]&&0===t[2]&&1===t[3]&&0===t[4]&&0===t[5]}return this.i}},{key:"point",value:function(t,n){var r=this.m;return{x:r[0]*t+r[2]*n+r[4],y:r[1]*t+r[3]*n+r[5]}}},{key:"translateSelf",value:function(){var t=arguments.length>0&&void 0!==arguments[0]?arguments[0]:0,n=arguments.length>1&&void 0!==arguments[1]?arguments[1]:0;if(!t&&!n)return this;var r=this.m;return r[4]+=r[0]*t+r[2]*n,r[5]+=r[1]*t+r[3]*n,this.w=this.s=this.i=null,this}},{key:"rotateSelf",value:function(){var t=arguments.length>0&&void 0!==arguments[0]?arguments[0]:0;if(t%=360){var n=H(t*=X),r=Y(t),e=this.m,i=e[0],o=e[1];e[0]=i*r+e[2]*n,e[1]=o*r+e[3]*n,e[2]=e[2]*r-i*n,e[3]=e[3]*r-o*n,this.w=this.s=this.i=null}return this}},{key:"scaleSelf",value:function(){var t=arguments.length>0&&void 0!==arguments[0]?arguments[0]:1,n=arguments.length>1&&void 0!==arguments[1]?arguments[1]:1;if(1!==t||1!==n){var r=this.m;r[0]*=t,r[1]*=t,r[2]*=n,r[3]*=n,this.w=this.s=this.i=null}return this}},{key:"skewSelf",value:function(t,n){if(n%=360,(t%=360)||n){var r=this.m,e=r[0],i=r[1],o=r[2],u=r[3];t&&(t=K(t*X),r[2]+=e*t,r[3]+=i*t),n&&(n=K(n*X),r[0]+=o*n,r[1]+=u*n),this.w=this.s=this.i=null}return this}},{key:"resetSelf",value:function(){var t=arguments.length>0&&void 0!==arguments[0]?arguments[0]:1,n=arguments.length>1&&void 0!==arguments[1]?arguments[1]:0,r=arguments.length>2&&void 0!==arguments[2]?arguments[2]:0,e=arguments.length>3&&void 0!==arguments[3]?arguments[3]:1,i=arguments.length>4&&void 0!==arguments[4]?arguments[4]:0,o=arguments.length>5&&void 0!==arguments[5]?arguments[5]:0,u=this.m;return u[0]=t,u[1]=n,u[2]=r,u[3]=e,u[4]=i,u[5]=o,this.w=this.s=this.i=null,this}},{key:"recomposeSelf",value:function(){var t=arguments.length>0&&void 0!==arguments[0]?arguments[0]:null,n=arguments.length>1&&void 0!==arguments[1]?arguments[1]:null,r=arguments.length>2&&void 0!==arguments[2]?arguments[2]:null,e=arguments.length>3&&void 0!==arguments[3]?arguments[3]:null,i=arguments.length>4&&void 0!==arguments[4]?arguments[4]:null;return this.isIdentity||this.resetSelf(),t&&(t.x||t.y)&&this.translateSelf(t.x,t.y),n&&this.rotateSelf(n),r&&(r.x&&this.skewSelf(r.x,0),r.y&&this.skewSelf(0,r.y)),!e||1===e.x&&1===e.y||this.scaleSelf(e.x,e.y),i&&(i.x||i.y)&&this.translateSelf(i.x,i.y),this}},{key:"decompose",value:function(){var t=arguments.length>0&&void 0!==arguments[0]?arguments[0]:0,n=arguments.length>1&&void 0!==arguments[1]?arguments[1]:0,r=this.m,e=r[0]*r[0]+r[1]*r[1],i=[[r[0],r[1]],[r[2],r[3]]],o=nt(e);if(0===o)return{origin:{x:r[4],y:r[5]},translate:{x:t,y:n},scale:{x:0,y:0},skew:{x:0,y:0},rotate:0};i[0][0]/=o,i[0][1]/=o;var u=r[0]*r[3]-r[1]*r[2]<0;u&&(o=-o);var a=i[0][0]*i[1][0]+i[0][1]*i[1][1];i[1][0]-=i[0][0]*a,i[1][1]-=i[0][1]*a;var l=nt(i[1][0]*i[1][0]+i[1][1]*i[1][1]);if(0===l)return{origin:{x:r[4],y:r[5]},translate:{x:t,y:n},scale:{x:o,y:0},skew:{x:0,y:0},rotate:0};i[1][0]/=l,i[1][1]/=l,a/=l;var f=0;return i[1][1]<0?(f=Z(i[1][1])*tt,i[0][1]<0&&(f=360-f)):f=J(i[0][1])*tt,u&&(f=-f),a=W(a,nt(i[0][0]*i[0][0]+i[0][1]*i[0][1]))*tt,u&&(a=-a),{origin:{x:r[4],y:r[5]},translate:{x:t,y:n},scale:{x:o,y:l},skew:{x:a,y:0},rotate:f}}},{key:"toString",value:function(){return null===this.s&&(this.s="matrix("+this.m.map(it).join(" ")+")"),this.s}}]),t}(),et=/\.0+$/;function it(t){return Number.isInteger(t)?t:t.toFixed(14).replace(et,"")}function ot(t,n,r){return t+(n-t)*r}function ut(t,n,r){var e=arguments.length>3&&void 0!==arguments[3]&&arguments[3],i={x:ot(t.x,n.x,r),y:ot(t.y,n.y,r)};return e&&(i.a=at(t,n)),i}function at(t,n){return Math.atan2(n.y-t.y,n.x-t.x)}Object.freeze({M:2,L:2,Z:0,H:1,V:1,C:6,Q:4,T:2,S:4,A:7});var lt={},ft=null;function st(n){var r=function(){if(ft)return ft;if("object"!==("undefined"==typeof document?"undefined":t(document)))return{};var n=document.createElementNS("http://www.w3.org/2000/svg","svg");return n.style.position="absolute",n.style.opacity="0.01",n.style.zIndex="-9999",n.style.left="-9999px",n.style.width="1px",n.style.height="1px",ft={svg:n}}().svg;if(!r)return function(t){return null};var e=document.createElementNS(r.namespaceURI,"path");e.setAttributeNS(null,"d",n),e.setAttributeNS(null,"fill","none"),e.setAttributeNS(null,"stroke","none"),r.appendChild(e);var i=e.getTotalLength();return function(t){var n=e.getPointAtLength(i*t);return{x:n.x,y:n.y}}}function ct(t){return lt[t]?lt[t]:lt[t]=st(t)}function ht(t,n,r,e){if(!t||!e)return!1;var i=["M",t.x,t.y];if(n&&r&&(i.push("C"),i.push(n.x),i.push(n.y),i.push(r.x),i.push(r.y)),n?!r:r){var o=n||r;i.push("Q"),i.push(o.x),i.push(o.y)}return n||r||i.push("L"),i.push(e.x),i.push(e.y),i.join(" ")}function vt(t,n,r,e){var i=arguments.length>4&&void 0!==arguments[4]?arguments[4]:1,o=ht(t,n,r,e),u=ct(o);try{return u(i)}catch(t){return null}}function yt(t,n,r,e){var i=1-e;return i*i*t+2*i*e*n+e*e*r}function dt(t,n,r,e){return 2*(1-e)*(n-t)+2*e*(r-n)}function gt(t,n,r,e){var i=arguments.length>4&&void 0!==arguments[4]&&arguments[4],o=vt(t,n,null,r,e);return o||(o={x:yt(t.x,n.x,r.x,e),y:yt(t.y,n.y,r.y,e)}),i&&(o.a=pt(t,n,r,e)),o}function pt(t,n,r,e){return Math.atan2(dt(t.y,n.y,r.y,e),dt(t.x,n.x,r.x,e))}function mt(t,n,r,e,i){var o=i*i;return i*o*(e-t+3*(n-r))+3*o*(t+r-2*n)+3*i*(n-t)+t}function bt(t,n,r,e,i){var o=1-i;return 3*(o*o*(n-t)+2*o*i*(r-n)+i*i*(e-r))}function wt(t,n,r,e,i){var o=arguments.length>5&&void 0!==arguments[5]&&arguments[5],u=vt(t,n,r,e,i);return u||(u={x:mt(t.x,n.x,r.x,e.x,i),y:mt(t.y,n.y,r.y,e.y,i)}),o&&(u.a=xt(t,n,r,e,i)),u}function xt(t,n,r,e,i){return Math.atan2(bt(t.y,n.y,r.y,e.y,i),bt(t.x,n.x,r.x,e.x,i))}function kt(t,n,r){var e=arguments.length>3&&void 0!==arguments[3]&&arguments[3];if(_t(n)){if(St(r))return gt(n,r.start,r,t,e)}else if(_t(r)){if(n.end)return gt(n,n.end,r,t,e)}else{if(n.end)return r.start?wt(n,n.end,r.start,r,t,e):gt(n,n.end,r,t,e);if(r.start)return gt(n,r.start,r,t,e)}return ut(n,r,t,e)}function At(t,n,r){var e=kt(t,n,r,!0);return e.a=function(t){var n=arguments.length>1&&void 0!==arguments[1]&&arguments[1];return n?t+Math.PI:t}(e.a)/p,e}function _t(t){return!t.type||"corner"===t.type}function St(t){return null!=t.start&&!_t(t)}var Ot=new rt;var Mt={f:Q,i:b},jt={f:Q,i:function(t,n,r){var e=b(t,n,r);return e<=0?0:e>=1?1:e}};function Ft(t,n,r,e,i,o,u,a){return n=function(t,n,r){for(var e,i,o,u=t.length-1,a={},l=0;l<=u;l++)(e=t[l]).e&&(e.e=n(e.e)),e.v&&"g"===(i=e.v).t&&i.r&&(o=r.getElementById(i.r))&&(a[i.r]=o.querySelectorAll("stop"));return a}(t,e,a),function(e){var i,o=r(e,t,Pt);return o?"c"===o.t?V(o.v):"g"===o.t?(n[o.r]&&function(t,n){for(var r=0,e=t.length;r<e;r++)t[r].setAttribute("stop-color",V(n[r]))}(n[o.r],o.v),(i=o.r)?"url(#"+i+")":"none"):"none":"none"}}function Pt(t,n,r){if(0===t)return n;if(1===t)return r;if(n&&r){var e=n.t;if(e===r.t)switch(n.t){case"c":return{t:e,v:A(t,n.v,r.v)};case"g":if(n.r===r.r)return{t:e,v:_(t,n.v,r.v),r:n.r}}}return m(t,n,r)}var Bt={fill:Ft,"fill-opacity":jt,stroke:Ft,"stroke-opacity":jt,"stroke-width":Mt,"stroke-dashoffset":{f:Q,i:b},"stroke-dasharray":{f:function(t){var n=arguments.length>1&&void 0!==arguments[1]?arguments[1]:" ";return t&&t.length>0&&(t=t.map((function(t){return Math.floor(1e4*t)/1e4}))),U(t,n)},i:function(t,n,r){var e,i,o,u=n.length,a=r.length;if(u!==a)if(0===u)n=S(u=a,0);else if(0===a)a=u,r=S(u,0);else{var l=(o=(e=u)*(i=a)/function(t,n){for(var r;n;)r=n,n=t%n,t=r;return t||1}(e,i))<0?-o:o;n=O(n,Math.floor(l/u)),r=O(r,Math.floor(l/a)),u=a=l}for(var f=[],s=0;s<u;s++)f.push(g(w(t,n[s],r[s]),6));return f}},opacity:jt,transform:function(n,r,e,i){if(!(n=function(n,r){if(!n||"object"!==t(n))return null;var e=!1;for(var i in n)n.hasOwnProperty(i)&&(n[i]&&n[i].length?(n[i].forEach((function(t){t.e&&(t.e=r(t.e))})),e=!0):delete n[i]);return e?n:null}(n,i)))return null;var o=function(t,i,o){var u=arguments.length>3&&void 0!==arguments[3]?arguments[3]:null;return n[t]?e(i,n[t],o):r&&r[t]?r[t]:u};return r&&r.a&&n.o?function(t){var r=e(t,n.o,At);return Ot.recomposeSelf(r,o("r",t,b,0)+r.a,o("k",t,x),o("s",t,x),o("t",t,x)).toString()}:function(t){return Ot.recomposeSelf(o("o",t,kt,null),o("r",t,b,0),o("k",t,x),o("s",t,x),o("t",t,x)).toString()}},r:Mt,"#size":G,"#radius":$,_:function(t,n){if(Array.isArray(t))for(var r=0;r<t.length;r++)this[t[r]]=n;else this[t]=n}};return function(t){!function(t,n){if("function"!=typeof n&&null!==n)throw new TypeError("Super expression must either be null or a function");t.prototype=Object.create(n&&n.prototype,{constructor:{value:t,writable:!0,configurable:!0}}),n&&o(t,n)}(u,t);var r=a(u);function u(){return n(this,u),r.apply(this,arguments)}return e(u,null,[{key:"build",value:function(t){var n=l(i(u),"build",this).call(this,t,Bt);n.el,n.options;var r=n.player;return function(t,n,r){t.play()}(r),r}}]),u}(L)}));
__SVGATOR_PLAYER__.build({"root":"eR4StPqar9L1","animations":[{"duration":800,"direction":1,"iterations":0,"fill":1,"alternate":true,"speed":1,"elements":{"eR4StPqar9L2":{"transform":{"data":{"o":{"x":225.5195315,"y":183.453125,"type":"corner"},"t":{"x":-225.5195315,"y":-183.453125}},"keys":{"r":[{"t":0,"v":9},{"t":90,"v":-9},{"t":180,"v":9},{"t":260,"v":-8},{"t":350,"v":7},{"t":450,"v":-6},{"t":540,"v":5,"e":[0,0,0.58,1]},{"t":600,"v":-4,"e":[0,0,0.58,1]},{"t":670,"v":3,"e":[0,0,0.58,1]},{"t":720,"v":-2,"e":[0,0,0.58,1]},{"t":760,"v":1,"e":[0,0,0.58,1]},{"t":800,"v":0}]}}}}}],"options":{"start":"load","hover":"freeze","click":"freeze","scroll":25,"font":"embed","exportedIds":"unique","svgFormat":"animated","title":"beer"},"animationSettings":{"duration":800,"direction":1,"iterations":0,"fill":1,"alternate":true,"speed":1}})]]></script></svg>